<svg width="12" height="20" viewBox="0 0 12 20" fill="none" xmlns="http://www.w3.org/2000/svg">
<path d="M3.75566 19.5597V11.2769C3.75566 10.9484 3.75566 10.9484 3.4324 10.9484C2.60042 10.9484 1.76844 10.9484 0.936451 10.9484C0.703283 10.9484 0.660889 10.8636 0.660889 10.6569C0.660889 9.67125 0.660889 8.69088 0.660889 7.70522C0.660889 7.49325 0.713883 7.41376 0.941751 7.41906C1.77904 7.41906 2.62162 7.41906 3.4642 7.41906C3.68677 7.41906 3.76626 7.36607 3.76096 7.1276C3.76096 6.29385 3.76096 5.46186 3.76096 4.63164C3.72546 3.55047 4.04977 2.48809 4.68303 1.61106C5.00219 1.19543 5.40079 0.847407 5.85567 0.587219C6.31054 0.327031 6.81261 0.159875 7.33266 0.0954735C8.53156 -0.0451692 9.74489 -0.00228273 10.9309 0.222656C10.9549 0.222341 10.9786 0.227288 11.0005 0.237147C11.0224 0.247007 11.0418 0.26154 11.0575 0.279724C11.0732 0.297909 11.0846 0.319303 11.0911 0.342403C11.0976 0.365503 11.099 0.389746 11.0951 0.413429V3.06306C11.0951 3.23794 10.9786 3.23794 10.8514 3.23794C10.3214 3.23794 9.79152 3.23794 9.2616 3.23794C9.02732 3.23568 8.79515 3.2823 8.5799 3.37481C8.36466 3.46733 8.17106 3.60371 8.01149 3.77525C7.85192 3.94679 7.72987 4.14972 7.65313 4.37109C7.5764 4.59245 7.54667 4.82738 7.56583 5.06088C7.56583 5.76039 7.56583 6.45989 7.56583 7.18059C7.56583 7.38726 7.61883 7.45615 7.8308 7.45085C8.77407 7.45085 9.72263 7.45085 10.6659 7.45085C10.8885 7.45085 10.9362 7.51445 10.9044 7.72112C10.7348 8.74917 10.5811 9.77723 10.4274 10.8053C10.4274 10.9749 10.3003 10.9749 10.1784 10.9749C9.38878 10.9749 8.58859 10.9749 7.8202 10.9749C7.61882 10.9749 7.56583 11.0438 7.56583 11.2398C7.56583 14.0237 7.56583 16.8076 7.56583 19.5915L3.75566 19.5597Z" fill="white"/>
</svg>
