<svg width="21" height="21" viewBox="0 0 21 21" fill="none" xmlns="http://www.w3.org/2000/svg">
<path d="M4.85951 10.8302C4.85965 9.79316 5.16835 8.77965 5.74633 7.91865C6.3243 7.05765 7.14541 6.3881 8.10511 5.99524C9.06482 5.60238 10.1197 5.50398 11.1355 5.71256C12.1513 5.92114 13.0821 6.42726 13.8094 7.16651C14.5366 7.90576 15.0275 8.84469 15.2194 9.86377C15.4113 10.8829 15.2957 11.936 14.8872 12.8892C14.4787 13.8423 13.7958 14.6524 12.9254 15.2162C12.0551 15.78 11.0367 16.0721 9.9998 16.0552C8.62789 16.0357 7.31896 15.4763 6.35675 14.4982C5.39453 13.5201 4.85658 12.2022 4.85951 10.8302ZM10.0687 14.1581C10.7324 14.1632 11.3827 13.9719 11.938 13.6083C12.4932 13.2447 12.9285 12.725 13.1892 12.1146C13.4498 11.5043 13.5241 10.8304 13.4028 10.1779C13.2814 9.5254 12.9698 8.92335 12.5072 8.44748C12.0445 7.97161 11.4515 7.64318 10.8027 7.5035C10.1538 7.36382 9.47817 7.41913 8.86069 7.66248C8.24321 7.90582 7.71148 8.32634 7.33238 8.87112C6.95329 9.4159 6.74376 10.0606 6.73015 10.7242C6.7203 11.1698 6.79922 11.6129 6.96232 12.0278C7.12542 12.4426 7.36943 12.8208 7.68015 13.1404C7.99087 13.46 8.36207 13.7146 8.77214 13.8893C9.18222 14.064 9.62295 14.1554 10.0687 14.1581Z" fill="white"/>
<path d="M16.7194 5.39317C16.7201 5.55601 16.6887 5.7174 16.627 5.86811C16.5653 6.01883 16.4746 6.15592 16.3599 6.27156C16.2453 6.3872 16.109 6.47912 15.9588 6.54208C15.8086 6.60504 15.6475 6.6378 15.4846 6.6385C15.157 6.63719 14.8428 6.5079 14.6092 6.27821C14.3756 6.04853 14.2409 5.73663 14.234 5.40907C14.2546 5.09352 14.3945 4.79762 14.6253 4.58143C14.8561 4.36524 15.1605 4.24493 15.4767 4.24493C15.7929 4.24493 16.0973 4.36524 16.3281 4.58143C16.5589 4.79762 16.6987 5.09352 16.7194 5.40907V5.39317Z" fill="white"/>
<path d="M14.7849 0.761627H5.35226C3.93275 0.761627 2.57138 1.32552 1.56764 2.32927C0.563897 3.33301 0 4.69438 0 6.11389L0 15.4936C0 16.9131 0.563897 18.2745 1.56764 19.2782C2.57138 20.2819 3.93275 20.8458 5.35226 20.8458H14.7849C16.2045 20.8458 17.5658 20.2819 18.5696 19.2782C19.5733 18.2745 20.1372 16.9131 20.1372 15.4936V6.11389C20.1372 4.69438 19.5733 3.33301 18.5696 2.32927C17.5658 1.32552 16.2045 0.761627 14.7849 0.761627V0.761627ZM18.3778 15.2604C18.3778 16.2766 17.9742 17.2511 17.2557 17.9696C16.5371 18.6881 15.5626 19.0918 14.5465 19.0918H5.59072C4.57458 19.0918 3.60006 18.6881 2.88154 17.9696C2.16302 17.2511 1.75936 16.2766 1.75936 15.2604V6.34705C1.75936 5.33091 2.16302 4.35639 2.88154 3.63787C3.60006 2.91934 4.57458 2.51568 5.59072 2.51568H14.5465C15.5626 2.51568 16.5371 2.91934 17.2557 3.63787C17.9742 4.35639 18.3778 5.33091 18.3778 6.34705V15.2604Z" fill="white"/>
</svg>
