<svg width="20" height="21" viewBox="0 0 20 21" fill="none" xmlns="http://www.w3.org/2000/svg">
<path d="M9.89618 0.894073C7.93938 0.894073 6.02653 1.47433 4.39952 2.56147C2.7725 3.6486 1.50439 5.19379 0.755559 7.00164C0.00672562 8.80948 -0.1892 10.7988 0.192552 12.718C0.574304 14.6372 1.51659 16.4001 2.90025 17.7837C4.28391 19.1674 6.04681 20.1097 7.96601 20.4914C9.8852 20.8732 11.8745 20.6772 13.6823 19.9284C15.4902 19.1796 17.0354 17.9115 18.1225 16.2845C19.2096 14.6574 19.7899 12.7446 19.7899 10.7878C19.7899 9.48854 19.534 8.202 19.0368 7.00164C18.5396 5.80127 17.8108 4.7106 16.8921 3.79188C15.9734 2.87316 14.8827 2.1444 13.6823 1.64719C12.482 1.14998 11.1954 0.894073 9.89618 0.894073ZM14.4376 15.165C14.3521 15.3042 14.215 15.4041 14.0562 15.4428C13.8974 15.4815 13.7298 15.4559 13.5898 15.3717C11.2634 13.9568 8.33819 13.6335 4.89367 14.4231C4.73415 14.4596 4.56665 14.4313 4.42801 14.3444C4.28938 14.2574 4.19095 14.1189 4.15441 13.9594C4.11787 13.7999 4.1462 13.6324 4.23315 13.4938C4.32011 13.3551 4.45858 13.2567 4.6181 13.2202C8.38588 12.3564 11.6184 12.7273 14.2257 14.3224C14.3644 14.4071 14.4643 14.5428 14.5039 14.7004C14.5436 14.8579 14.5198 15.0248 14.4376 15.165ZM15.6459 12.473C15.5385 12.6466 15.3669 12.7708 15.1683 12.8185C14.9698 12.8661 14.7605 12.8334 14.586 12.7273C11.9364 11.0899 7.87185 10.6076 4.72409 11.5721C4.53271 11.6163 4.3317 11.586 4.16182 11.4874C3.99194 11.3888 3.86591 11.2293 3.80928 11.0413C3.75266 10.8532 3.76968 10.6506 3.85689 10.4746C3.94411 10.2987 4.095 10.1624 4.27895 10.0936C7.87186 9.03375 12.3391 9.53188 15.4074 11.4078C15.5799 11.5178 15.7018 11.6916 15.7465 11.8912C15.7912 12.0908 15.755 12.3 15.6459 12.473ZM17.029 9.3411C16.9673 9.44571 16.8855 9.53709 16.7883 9.60999C16.6912 9.6829 16.5806 9.73589 16.4629 9.76593C16.3452 9.79596 16.2228 9.80245 16.1026 9.78502C15.9823 9.76759 15.8668 9.72659 15.7625 9.66436C12.5829 7.77252 7.31014 7.59765 4.26836 8.51972C4.14883 8.56729 4.02071 8.58948 3.89215 8.58486C3.76359 8.58025 3.63739 8.54894 3.52158 8.49292C3.40577 8.4369 3.30288 8.3574 3.21946 8.25947C3.13603 8.16154 3.0739 8.04732 3.037 7.92408C3.0001 7.80084 2.98925 7.67127 3.00513 7.54361C3.02101 7.41594 3.06328 7.29298 3.12925 7.18254C3.19522 7.07209 3.28343 6.97658 3.38831 6.90208C3.49318 6.82757 3.61243 6.7757 3.73843 6.74976C7.23595 5.68991 13.0439 5.89128 16.7163 8.07458C16.8209 8.13631 16.9123 8.21809 16.9852 8.31524C17.0581 8.41239 17.1111 8.52298 17.1412 8.64067C17.1712 8.75835 17.1777 8.88082 17.1603 9.00102C17.1428 9.12122 17.1018 9.2368 17.0396 9.3411H17.029Z" fill="white"/>
</svg>
