<svg width="30" height="23" viewBox="0 0 30 23" fill="none" xmlns="http://www.w3.org/2000/svg">
<path d="M22.8478 16.9493C23.4184 16.3999 23.871 15.7399 24.178 15.0098C24.6042 13.9617 24.6658 12.8009 24.3528 11.7136C23.6844 12.6738 22.7689 13.4355 21.7032 13.9181C23.0237 12.6708 23.8703 11.0038 24.0985 9.20177C24.2316 7.85053 23.9069 6.49374 23.1764 5.3492C22.6798 6.82945 21.7583 8.13067 20.5268 9.09048C21.2992 7.48391 21.5118 5.66511 21.1309 3.9237C20.7811 2.50349 20.2141 1.45954 19.3927 0.892517C18.9052 4.24695 16.7431 6.99727 13.4152 9.37134C13.1396 8.9792 12.8852 8.57645 12.615 8.16311C12.0308 7.20214 11.1428 6.46341 10.0916 6.06377C9.04037 5.66414 7.88592 5.62643 6.81086 5.95661C5.73581 6.28679 4.80154 6.966 4.15586 7.88679C3.51018 8.80759 3.18997 9.91739 3.24587 11.0406C2.32516 11.2493 1.37998 11.3296 0.437256 11.2791C1.21386 11.9364 2.15948 12.3624 3.16638 12.5085C2.43122 12.7722 1.66552 12.9414 0.887693 13.0119C1.84114 13.595 2.95227 13.8672 4.06725 13.7909C5.73267 17.3153 8.65912 20.087 12.2687 21.5587C15.8782 23.0303 19.9084 23.095 23.5632 21.7398C26.0179 20.8425 28.2056 19.3385 29.9224 17.3679C27.567 17.8334 25.1318 17.6893 22.8478 16.9493Z" fill="white"/>
<path opacity="0.3" d="M22.8478 16.9493C23.4184 16.3999 23.871 15.7399 24.178 15.0098C24.6042 13.9617 24.6658 12.8009 24.3528 11.7136C23.6844 12.6738 22.7689 13.4355 21.7032 13.9181C23.0237 12.6708 23.8703 11.0038 24.0985 9.20177C24.2316 7.85053 23.9069 6.49374 23.1764 5.3492C22.6798 6.82945 21.7583 8.13067 20.5268 9.09048C21.2992 7.48391 21.5118 5.66511 21.1309 3.9237C20.7811 2.50349 20.2141 1.45954 19.3927 0.892517C18.9052 4.24695 16.7431 6.99727 13.4152 9.37134C13.1396 8.9792 12.8852 8.57645 12.615 8.16311C12.0308 7.20214 11.1428 6.46341 10.0916 6.06377C9.04037 5.66414 7.88592 5.62643 6.81086 5.95661C5.73581 6.28679 4.80154 6.966 4.15586 7.88679C3.51018 8.80759 3.18997 9.91739 3.24587 11.0406C2.32516 11.2493 1.37998 11.3296 0.437256 11.2791C1.21386 11.9364 2.15948 12.3624 3.16638 12.5085C2.43122 12.7722 1.66552 12.9414 0.887693 13.0119C1.84114 13.595 2.95227 13.8672 4.06725 13.7909C5.73267 17.3153 8.65912 20.087 12.2687 21.5587C15.8782 23.0303 19.9084 23.095 23.5632 21.7398C26.0179 20.8425 28.2056 19.3385 29.9224 17.3679C27.567 17.8334 25.1318 17.6893 22.8478 16.9493Z" fill="white"/>
</svg>
