<svg width="25" height="18" viewBox="0 0 25 18" fill="none" xmlns="http://www.w3.org/2000/svg">
<path d="M24.3356 3.83305C24.0547 1.96771 23.1009 1.06684 21.2302 0.838968C19.8418 0.664092 18.4481 0.616399 17.0544 0.552808C16.9325 0.552808 16.7894 0.621698 16.6887 0.483917H8.67625C8.57557 0.626997 8.43248 0.547508 8.3106 0.552808C6.94339 0.621698 5.57618 0.664092 4.21427 0.838968C3.46013 0.871906 2.74359 1.17749 2.19778 1.69893C1.65196 2.22037 1.314 2.92222 1.24668 3.67408C1.093 4.58555 1.02942 5.50232 0.955226 6.4191C0.955226 6.53038 1.01351 6.66816 0.875732 6.74765V10.8281C1.01351 10.9129 0.944628 11.0454 0.955226 11.1566C1.00548 12.1989 1.12764 13.2365 1.32087 14.262C1.43478 14.8692 1.73469 15.4259 2.17903 15.855C2.62338 16.2842 3.19018 16.5645 3.80093 16.6573C4.39839 16.7648 5.00187 16.8356 5.60798 16.8692C8.27528 17.0494 10.9443 17.1218 13.6152 17.0865C16.2252 17.1069 18.8345 16.9866 21.4316 16.7262C22.1394 16.684 22.8103 16.3963 23.3287 15.9126C23.8472 15.429 24.1808 14.7797 24.272 14.0765C24.4398 13.1218 24.5442 12.157 24.5846 11.1884C24.7492 8.7345 24.6658 6.27023 24.3356 3.83305ZM10.4303 12.3119V5.24796L16.5881 8.78787L10.4303 12.3119Z" fill="white"/>
</svg>
