<?xml version="1.0" encoding="UTF-8"?><svg id="Camada_1" xmlns="http://www.w3.org/2000/svg" xmlns:xlink="http://www.w3.org/1999/xlink" viewBox="0 0 395.11 77.68"><defs><style>.cls-1{fill:#ff9a00;}.cls-2{fill:#300;}.cls-3{fill:#1c2b33;}.cls-4{fill:#344854;}.cls-5{fill:url(#Gradiente_sem_nome_46);isolation:isolate;}</style><linearGradient id="Gradiente_sem_nome_46" x1="176.41" y1="22.59" x2="243.86" y2="23.77" gradientTransform="matrix(1, 0, 0, 1, 0, 0)" gradientUnits="userSpaceOnUse"><stop offset="0" stop-color="#0058e0"/><stop offset="1" stop-color="#0080fa"/></linearGradient></defs><path class="cls-4" d="M132.79,52.66c-3.04,2.84-6.59,4.62-10.9,4.62-6.59,0-11.56-4.01-11.56-10.24,0-4.56,2.69-7.86,7.56-9.94-2.03-2.59-2.94-4.82-2.94-7.51,0-4.77,3.85-8.93,10.19-8.93,5.63,0,9.43,3.8,9.43,8.67s-3.09,7.45-7.81,9.23l6.09,6.19c1.37-2.03,2.64-4.36,3.8-6.85l4.72,2.49c-1.42,2.84-2.99,5.63-4.82,8.11l5.58,5.68-4.61,3.3-4.72-4.82Zm-3.55-3.65l-7.91-8.06c-3.3,1.42-4.71,3.6-4.71,5.98,0,2.99,2.49,5.17,5.93,5.17,2.43,0,4.67-1.17,6.7-3.09Zm-.2-19.42c0-2.38-1.67-4.01-4.06-4.01-2.53,0-4.21,1.77-4.21,4.36,0,1.78,.71,3.09,2.69,5.27,3.65-1.32,5.58-2.99,5.58-5.63Z"/><g id="Layer_2"><g id="Surfaces"><g id="Drawing_Surface"><g id="Outline_no_shadow"><path class="cls-2" d="M13.43,2.08H62.43c7.43,0,13.43,6.01,13.43,13.43V62.61c0,7.43-6.01,13.43-13.43,13.43H13.43c-7.43,0-13.43-6.01-13.43-13.43V15.52C0,8.09,6.01,2.08,13.43,2.08Z"/></g></g></g><g id="Outlined_Mnemonics_Logos"><g id="Ai"><path class="cls-1" d="M36.76,46.46h-11.76l-2.4,7.43c-.06,.28-.32,.47-.6,.44h-5.94c-.35,0-.44-.19-.35-.57l10.18-29.3c.09-.32,.19-.66,.32-1.04,.13-.66,.19-1.36,.19-2.05-.03-.16,.09-.32,.25-.35h8.19c.25,0,.38,.09,.41,.25l11.54,32.56c.09,.35,0,.51-.32,.51h-6.61c-.22,.03-.44-.13-.51-.35l-2.59-7.52Zm-9.93-6.42h8.03c-.19-.66-.44-1.45-.73-2.28-.28-.85-.57-1.77-.85-2.72-.32-.98-.6-1.93-.92-2.91-.32-.98-.6-1.9-.85-2.81-.25-.89-.47-1.71-.7-2.47h-.06c-.28,1.36-.63,2.72-1.07,4.08-.47,1.52-.95,3.1-1.45,4.68-.44,1.61-.92,3.1-1.39,4.43h0Z"/><path class="cls-1" d="M53.67,26.42c-1.04,.03-2.05-.38-2.81-1.11-.73-.79-1.11-1.83-1.07-2.91-.03-1.07,.38-2.09,1.14-2.81,.76-.73,1.77-1.11,2.81-1.11,1.23,0,2.18,.38,2.88,1.11,.7,.76,1.07,1.77,1.04,2.81,.03,1.07-.35,2.12-1.11,2.91-.73,.76-1.8,1.17-2.88,1.11Zm-3.54,27.44V29.52c0-.32,.13-.44,.41-.44h6.26c.28,0,.41,.16,.41,.44v24.34c0,.35-.13,.51-.41,.51h-6.2c-.32,0-.47-.19-.47-.51Z"/></g></g></g><g><g><path class="cls-3" d="M188.16,55.59c.88,.26,1.64,.63,2.27,1.11,.63,.47,1.11,1.05,1.45,1.74,.34,.68,.5,1.45,.5,2.29,0,.74-.1,1.38-.3,1.93-.2,.55-.47,1.03-.8,1.45-.34,.42-.71,.77-1.12,1.06-.41,.28-.83,.52-1.28,.71,.65,.19,1.27,.44,1.84,.74,.58,.31,1.08,.67,1.5,1.09,.42,.42,.76,.93,1.01,1.52s.38,1.26,.38,2.02c0,.95-.19,1.8-.57,2.56-.38,.76-.92,1.4-1.62,1.91-.7,.52-1.55,.91-2.54,1.18-.99,.27-2.08,.41-3.28,.41h-9.8v-22.1h9.39c1.09,0,2.08,.13,2.96,.39Zm.31,8.44c.94-.68,1.42-1.67,1.42-2.98,0-1.12-.42-2.01-1.26-2.66-.84-.66-2.05-.98-3.62-.98h-6.71v7.64h6.52c1.49,0,2.71-.34,3.65-1.01Zm1.2,10.01c.97-.7,1.45-1.68,1.45-2.95s-.49-2.17-1.48-2.84c-.99-.67-2.45-1-4.38-1h-6.96v7.83h7.4c1.68,0,3-.35,3.97-1.05Z"/><path class="cls-3" d="M209.78,60.97h2.4v16.33h-2.4v-2.84c-.55,.88-1.26,1.64-2.15,2.26-.88,.62-2.03,.93-3.44,.93-.99,0-1.87-.16-2.64-.47-.77-.32-1.42-.76-1.96-1.34-.54-.58-.95-1.27-1.23-2.07-.28-.8-.43-1.68-.43-2.65v-10.14h2.43v9.54c0,1.52,.39,2.72,1.17,3.6,.78,.88,1.9,1.33,3.35,1.33,.69,0,1.34-.12,1.94-.36s1.12-.59,1.55-1.04c.43-.45,.77-.99,1.03-1.63s.38-1.33,.38-2.08v-9.35Z"/><path class="cls-3" d="M228.39,74.79c-.31,.6-.72,1.11-1.23,1.53-.52,.42-1.13,.74-1.83,.96s-1.47,.33-2.29,.33c-1.18,0-2.37-.22-3.57-.65-1.2-.43-2.26-1.02-3.19-1.75l1.23-1.74c.88,.67,1.8,1.19,2.76,1.55,.96,.36,1.92,.54,2.89,.54s1.8-.23,2.43-.7c.63-.46,.95-1.09,.95-1.89v-.06c0-.4-.11-.75-.33-1.04-.22-.29-.52-.55-.9-.77-.38-.22-.82-.41-1.31-.58-.49-.17-1.01-.33-1.53-.47-.63-.19-1.27-.39-1.91-.62-.64-.22-1.22-.5-1.74-.84s-.94-.76-1.26-1.26c-.33-.51-.49-1.14-.49-1.89v-.06c0-.7,.14-1.33,.41-1.91,.27-.58,.66-1.07,1.15-1.48,.49-.41,1.08-.73,1.77-.95,.68-.22,1.43-.33,2.23-.33,1.01,0,2.03,.16,3.06,.49s1.97,.76,2.81,1.31l-1.11,1.83c-.76-.48-1.55-.87-2.38-1.15-.83-.28-1.65-.43-2.45-.43-.97,0-1.74,.23-2.3,.68-.57,.45-.85,1.02-.85,1.69v.06c0,.38,.12,.71,.35,.99,.23,.28,.54,.53,.93,.74,.39,.21,.84,.4,1.34,.57s1.03,.34,1.58,.51c.63,.19,1.26,.4,1.88,.63,.62,.23,1.18,.53,1.69,.88,.51,.36,.91,.79,1.22,1.3s.46,1.13,.46,1.86v.06c0,.78-.15,1.47-.46,2.07Z"/><path class="cls-3" d="M233.43,57.4v-2.68h2.78v2.68h-2.78Zm.16,19.89v-16.33h2.43v16.33h-2.43Z"/><path class="cls-3" d="M244.1,77.3h-2.43v-16.33h2.43v2.84c.55-.88,1.26-1.64,2.15-2.26,.88-.62,2.03-.93,3.44-.93,.99,0,1.87,.16,2.64,.47,.77,.32,1.42,.76,1.96,1.34,.54,.58,.95,1.27,1.23,2.07,.28,.8,.43,1.68,.43,2.65v10.14h-2.43v-9.54c0-1.52-.39-2.72-1.17-3.6-.78-.88-1.9-1.33-3.35-1.33-.7,0-1.34,.12-1.94,.36s-1.12,.59-1.56,1.04c-.44,.45-.78,.99-1.03,1.63-.24,.63-.36,1.33-.36,2.08v9.35Z"/><path class="cls-3" d="M263.24,72.39c.34,.68,.77,1.26,1.29,1.74s1.12,.83,1.77,1.07c.65,.24,1.34,.36,2.05,.36,1.14,0,2.11-.21,2.92-.63,.81-.42,1.55-.98,2.23-1.67l1.52,1.36c-.82,.93-1.76,1.67-2.81,2.23-1.05,.56-2.36,.84-3.92,.84-1.12,0-2.17-.21-3.16-.62-.99-.41-1.86-.99-2.6-1.74-.74-.75-1.33-1.65-1.77-2.7-.44-1.05-.66-2.21-.66-3.47,0-1.18,.2-2.29,.58-3.33,.39-1.04,.93-1.95,1.63-2.72,.7-.77,1.52-1.37,2.48-1.82,.96-.44,2.01-.66,3.14-.66,1.2,0,2.27,.23,3.22,.68,.95,.45,1.75,1.07,2.4,1.85,.65,.78,1.15,1.69,1.48,2.75,.34,1.05,.51,2.18,.51,3.38v.35c0,.13-.01,.26-.03,.41h-12.92c.08,.88,.29,1.67,.63,2.35Zm9.82-4.15c-.06-.74-.21-1.44-.46-2.12s-.58-1.26-1-1.77c-.43-.51-.95-.91-1.57-1.22s-1.33-.46-2.15-.46c-.71,0-1.37,.14-1.98,.43-.61,.28-1.14,.67-1.6,1.17-.46,.49-.84,1.08-1.13,1.75-.29,.67-.48,1.41-.56,2.21h10.45Z"/><path class="cls-3" d="M290.57,74.79c-.31,.6-.72,1.11-1.23,1.53-.52,.42-1.13,.74-1.83,.96s-1.47,.33-2.29,.33c-1.18,0-2.37-.22-3.57-.65-1.2-.43-2.26-1.02-3.19-1.75l1.23-1.74c.88,.67,1.8,1.19,2.76,1.55,.96,.36,1.92,.54,2.89,.54s1.8-.23,2.43-.7c.63-.46,.95-1.09,.95-1.89v-.06c0-.4-.11-.75-.33-1.04-.22-.29-.52-.55-.9-.77-.38-.22-.82-.41-1.31-.58-.49-.17-1.01-.33-1.53-.47-.63-.19-1.27-.39-1.91-.62-.64-.22-1.22-.5-1.74-.84s-.94-.76-1.26-1.26c-.33-.51-.49-1.14-.49-1.89v-.06c0-.7,.14-1.33,.41-1.91,.27-.58,.66-1.07,1.15-1.48,.49-.41,1.08-.73,1.77-.95,.68-.22,1.43-.33,2.23-.33,1.01,0,2.03,.16,3.06,.49s1.97,.76,2.81,1.31l-1.11,1.83c-.76-.48-1.55-.87-2.38-1.15-.83-.28-1.65-.43-2.45-.43-.97,0-1.74,.23-2.3,.68-.57,.45-.85,1.02-.85,1.69v.06c0,.38,.12,.71,.35,.99,.23,.28,.54,.53,.93,.74,.39,.21,.84,.4,1.34,.57s1.03,.34,1.58,.51c.63,.19,1.26,.4,1.88,.63,.62,.23,1.18,.53,1.69,.88,.51,.36,.91,.79,1.22,1.3s.46,1.13,.46,1.86v.06c0,.78-.15,1.47-.46,2.07Z"/><path class="cls-3" d="M305.98,74.79c-.31,.6-.72,1.11-1.23,1.53-.52,.42-1.13,.74-1.83,.96s-1.47,.33-2.29,.33c-1.18,0-2.37-.22-3.57-.65-1.2-.43-2.26-1.02-3.19-1.75l1.23-1.74c.88,.67,1.8,1.19,2.76,1.55,.96,.36,1.92,.54,2.89,.54s1.8-.23,2.43-.7c.63-.46,.95-1.09,.95-1.89v-.06c0-.4-.11-.75-.33-1.04-.22-.29-.52-.55-.9-.77-.38-.22-.82-.41-1.31-.58-.49-.17-1.01-.33-1.53-.47-.63-.19-1.27-.39-1.91-.62-.64-.22-1.22-.5-1.74-.84s-.94-.76-1.26-1.26c-.33-.51-.49-1.14-.49-1.89v-.06c0-.7,.14-1.33,.41-1.91,.27-.58,.66-1.07,1.15-1.48,.49-.41,1.08-.73,1.77-.95,.68-.22,1.43-.33,2.23-.33,1.01,0,2.03,.16,3.06,.49s1.97,.76,2.81,1.31l-1.11,1.83c-.76-.48-1.55-.87-2.38-1.15-.83-.28-1.65-.43-2.45-.43-.97,0-1.74,.23-2.3,.68-.57,.45-.85,1.02-.85,1.69v.06c0,.38,.12,.71,.35,.99,.23,.28,.54,.53,.93,.74,.39,.21,.84,.4,1.34,.57s1.03,.34,1.58,.51c.63,.19,1.26,.4,1.88,.63,.62,.23,1.18,.53,1.69,.88,.51,.36,.91,.79,1.22,1.3s.46,1.13,.46,1.86v.06c0,.78-.15,1.47-.46,2.07Z"/><path class="cls-3" d="M323.02,62.12c.17,.42,.47,.81,.92,1.15,.44,.35,1.05,.66,1.83,.95s1.78,.55,3,.81c2.46,.55,4.28,1.31,5.45,2.28,1.17,.97,1.75,2.31,1.75,4.02,0,.95-.19,1.81-.56,2.59-.37,.78-.89,1.44-1.55,1.99-.66,.55-1.45,.97-2.37,1.26-.93,.29-1.94,.44-3.03,.44-1.77,0-3.38-.29-4.85-.86-1.46-.57-2.86-1.45-4.18-2.65l1.55-1.83c1.16,1.05,2.33,1.84,3.51,2.35,1.18,.52,2.54,.77,4.07,.77s2.69-.35,3.58-1.04c.89-.7,1.34-1.61,1.34-2.75,0-.53-.08-.99-.25-1.41-.17-.41-.46-.79-.89-1.12-.42-.34-1.01-.64-1.76-.92-.75-.27-1.7-.54-2.86-.79-1.27-.27-2.37-.59-3.31-.95-.94-.36-1.71-.79-2.33-1.3-.61-.51-1.07-1.1-1.36-1.77-.3-.67-.44-1.48-.44-2.4s.18-1.7,.54-2.43c.36-.74,.86-1.38,1.52-1.91,.65-.54,1.42-.96,2.3-1.26s1.85-.46,2.9-.46c1.62,0,3.04,.22,4.25,.67s2.38,1.12,3.52,2.01l-1.45,1.93c-1.03-.84-2.07-1.45-3.11-1.83-1.04-.38-2.13-.57-3.27-.57-.72,0-1.36,.1-1.94,.28-.58,.19-1.07,.44-1.48,.76s-.73,.7-.95,1.14-.33,.92-.33,1.42,.08,1,.25,1.42Z"/><path class="cls-3" d="M352.23,60.97h2.4v16.33h-2.4v-2.84c-.55,.88-1.26,1.64-2.15,2.26-.88,.62-2.03,.93-3.44,.93-.99,0-1.87-.16-2.64-.47-.77-.32-1.42-.76-1.96-1.34-.54-.58-.95-1.27-1.23-2.07-.28-.8-.43-1.68-.43-2.65v-10.14h2.43v9.54c0,1.52,.39,2.72,1.17,3.6s1.9,1.33,3.35,1.33c.69,0,1.34-.12,1.94-.36s1.12-.59,1.55-1.04c.43-.45,.77-.99,1.03-1.63s.38-1.33,.38-2.08v-9.35Z"/><path class="cls-3" d="M360.15,57.4v-2.68h2.78v2.68h-2.78Zm.16,19.89v-16.33h2.43v16.33h-2.43Z"/><path class="cls-3" d="M371.68,72.65c0,1.01,.25,1.72,.76,2.12,.51,.4,1.17,.6,1.99,.6,.42,0,.82-.04,1.18-.13,.37-.08,.76-.23,1.18-.44v2.08c-.42,.23-.87,.41-1.34,.52s-1.01,.17-1.59,.17c-.65,0-1.26-.08-1.83-.25s-1.06-.44-1.47-.8-.73-.85-.96-1.44-.35-1.3-.35-2.12v-9.85h-2.27v-2.15h2.27v-4.93h2.43v4.93h5.18v2.15h-5.18v9.54Z"/><path class="cls-3" d="M382.79,72.39c.34,.68,.77,1.26,1.29,1.74s1.12,.83,1.77,1.07c.65,.24,1.34,.36,2.05,.36,1.14,0,2.11-.21,2.92-.63,.81-.42,1.55-.98,2.23-1.67l1.52,1.36c-.82,.93-1.76,1.67-2.81,2.23-1.05,.56-2.36,.84-3.92,.84-1.12,0-2.17-.21-3.16-.62-.99-.41-1.86-.99-2.6-1.74-.74-.75-1.33-1.65-1.77-2.7-.44-1.05-.66-2.21-.66-3.47,0-1.18,.2-2.29,.58-3.33,.39-1.04,.93-1.95,1.63-2.72,.7-.77,1.52-1.37,2.48-1.82,.96-.44,2.01-.66,3.14-.66,1.2,0,2.27,.23,3.22,.68,.95,.45,1.75,1.07,2.4,1.85,.65,.78,1.15,1.69,1.48,2.75s.51,2.18,.51,3.38v.35c0,.13-.01,.26-.03,.41h-12.92c.08,.88,.29,1.67,.63,2.35Zm9.82-4.15c-.06-.74-.21-1.44-.46-2.12s-.58-1.26-1-1.77c-.43-.51-.95-.91-1.57-1.22s-1.33-.46-2.15-.46c-.71,0-1.37,.14-1.98,.43-.61,.28-1.14,.67-1.6,1.17-.46,.49-.84,1.08-1.13,1.75-.29,.67-.48,1.41-.56,2.21h10.45Z"/></g><g><path class="cls-3" d="M253.89,1.89h8.4l14.28,25.83,14.28-25.83h8.21V44.32h-6.85V11.8l-12.52,22.52h-6.43l-12.52-22.52V44.32h-6.85V1.89Z"/><path class="cls-3" d="M326.15,19.91c-1.43-1.46-3.31-2.2-5.64-2.2-2.26,0-4.16,.75-5.68,2.24-1.53,1.5-2.49,3.51-2.9,6.03h16.67c-.2-2.59-1.02-4.61-2.46-6.08m-5,25.17c-3.17,0-5.96-.7-8.37-2.11s-4.28-3.35-5.62-5.83c-1.34-2.49-2.02-5.34-2.02-8.55s.66-6.13,1.97-8.64c1.31-2.51,3.14-4.47,5.47-5.88,2.33-1.41,5.02-2.12,8.05-2.12,3.01,0,5.6,.71,7.77,2.14,2.17,1.42,3.84,3.42,5.02,5.99,1.17,2.57,1.76,5.58,1.76,9.03v1.88h-23.25c.42,2.59,1.47,4.62,3.14,6.11,1.67,1.49,3.77,2.23,6.32,2.23,2.04,0,3.8-.3,5.27-.91,1.47-.61,2.86-1.53,4.15-2.76l3.64,4.46c-3.62,3.31-8.05,4.97-13.31,4.97"/><path class="cls-3" d="M343.49,18.32h-6.3v-5.61h6.3V3.43h6.61V12.71h9.58v5.61h-9.58v14.22c0,2.36,.4,4.05,1.21,5.06s2.19,1.52,4.15,1.52c.87,0,1.61-.04,2.21-.11,.61-.07,1.27-.17,2-.29v5.55c-.83,.24-1.68,.42-2.53,.55-.98,.14-1.97,.21-2.96,.21-7.13,0-10.7-3.9-10.7-11.7v-15Z"/><path class="cls-3" d="M387.5,23.77c-.71-1.8-1.82-3.22-3.35-4.26-1.53-1.04-3.29-1.56-5.29-1.56-2.83,0-5.08,.95-6.76,2.85-1.68,1.9-2.52,4.47-2.52,7.7,0,3.25,.81,5.83,2.42,7.73,1.62,1.9,3.81,2.85,6.58,2.85,2.04,0,3.86-.53,5.46-1.58,1.6-1.05,2.75-2.47,3.46-4.24v-9.49Zm6.61,20.55h-6.49v-4.43c-1.12,1.63-2.63,2.95-4.4,3.83-1.78,.9-3.8,1.35-6.06,1.35-2.79,0-5.26-.71-7.41-2.14-2.15-1.42-3.84-3.39-5.08-5.88-1.23-2.5-1.85-5.35-1.85-8.56,0-3.23,.63-6.09,1.88-8.58,1.25-2.49,2.99-4.44,5.2-5.85,2.21-1.41,4.75-2.12,7.62-2.12,2.16,0,4.1,.42,5.82,1.26,1.69,.82,3.16,2.04,4.27,3.56v-4.06h6.49v31.61Z"/><path class="cls-5" d="M209.98,21.59c-2.05,3.49-4.02,6.88-6.03,10.25-1.41,2.36-2.81,4.73-4.34,7-1.4,2.07-3.16,3.84-5.26,5.23-6.87,4.55-15.01,1.55-17.24-6.37-1.1-3.91-1.04-7.85-.27-11.8,1.24-6.38,3.42-12.39,6.96-17.87,1.25-1.93,2.72-3.69,4.49-5.18,3.69-3.11,7.77-3.63,12.17-1.8,3.53,1.46,6.2,4,8.57,6.91,.3,.37,.6,.75,.9,1.13,0,.01,.04,0,.1,.02,.56-.69,1.12-1.41,1.72-2.09,2.11-2.43,4.49-4.53,7.47-5.84,4.71-2.06,9.01-1.47,12.86,2.02,2.66,2.41,4.58,5.37,6.2,8.54,2.61,5.13,4.43,10.53,5.21,16.24,.46,3.41,.31,6.8-.72,10.11-2.58,8.32-11,10.05-17.08,6.02-3.11-2.07-5.33-4.94-7.21-8.1-2.64-4.45-5.24-8.91-7.86-13.37-.19-.32-.38-.63-.63-1.05Zm-27.24,9.75c0,.59-.04,1.18,0,1.77,.13,1.53,.38,3.03,1.12,4.41,.86,1.61,2.21,2.35,4.02,2.26,1.77-.09,3.12-1.02,4.36-2.17,1.47-1.36,2.63-2.98,3.64-4.69,3.39-5.75,6.76-11.51,10.15-17.26,.19-.33,.22-.57-.01-.88-1.19-1.53-2.3-3.13-3.59-4.58-1.32-1.5-2.92-2.68-4.83-3.38-1.91-.7-3.68-.52-5.17,.91-.97,.93-1.9,1.94-2.68,3.03-2.28,3.21-3.85,6.78-5.1,10.49-1.1,3.28-1.96,6.61-1.92,10.1Zm54.74,.09l-.21-.04c0-.31,.03-.61,0-.92-.74-7.64-3.34-14.58-7.86-20.78-.69-.95-1.65-1.73-2.58-2.48-1.01-.82-2.24-1.03-3.47-.65-1.05,.33-2.11,.73-3.04,1.31-2.64,1.66-4.51,4.08-6.23,6.63-.33,.49-.37,.85-.05,1.39,2.02,3.37,3.99,6.76,5.99,10.14,1.7,2.87,3.38,5.75,5.16,8.58,1.03,1.63,2.32,3.06,3.96,4.13,.95,.62,1.97,1.03,3.12,1.03,2.09,0,3.58-1.03,4.24-3.3,.48-1.64,.65-3.36,.96-5.05Z"/></g></g></svg>