<svg width="323" height="55" viewBox="0 0 323 55" fill="none" xmlns="http://www.w3.org/2000/svg">
<path d="M47.0782 29.9181C49.565 30.3278 52.1368 30.754 54.7205 28.4477C54.8858 28.3009 54.9165 28.0523 54.7913 27.8676C54.6662 27.6853 54.4253 27.6238 54.2269 27.7232C52.0093 28.8621 49.7516 27.6356 47.3616 26.3333C45.5172 25.3294 43.6279 24.3018 41.7008 24.3894C43.002 23.0184 44.7166 22.6159 46.5067 22.1968C48.9604 21.6214 51.4992 21.0271 53.0036 17.9064C53.1004 17.7075 53.0343 17.466 52.8477 17.3452C52.6611 17.2245 52.4155 17.26 52.2715 17.4281C50.6561 19.3318 48.1008 19.0642 45.3991 18.7777C43.3138 18.5575 41.1741 18.3326 39.4265 19.1542C40.1043 17.3878 41.5354 16.3579 43.0304 15.2853C45.0779 13.8125 47.1963 12.29 47.3947 8.82833C47.4065 8.60576 47.253 8.40923 47.0357 8.36898C46.8184 8.32873 46.6035 8.45659 46.535 8.66732C45.7699 11.0469 43.3067 11.7786 40.6994 12.5528C38.6873 13.1495 36.6279 13.7628 35.3267 15.1905C35.2795 13.2987 36.2076 11.7975 37.1782 10.2324C38.5078 8.08485 39.8847 5.86624 38.7463 2.5916C38.6731 2.38087 38.4559 2.26011 38.2386 2.3051C38.0213 2.35009 37.8725 2.55135 37.8914 2.77392C38.0922 5.26482 36.0966 6.88675 33.9829 8.60102C32.3534 9.92461 30.6837 11.2813 30.0248 13.0998C29.2596 11.3713 29.543 9.62864 29.843 7.81018C30.2515 5.31691 30.6766 2.7384 28.374 0.148053C28.2276 -0.0176913 27.9796 -0.0484723 27.7954 0.0770199C27.6136 0.202512 27.5522 0.444026 27.6513 0.642919C28.7873 2.86863 27.5616 5.12986 26.2651 7.52605C25.2637 9.37292 24.2388 11.2695 24.3262 13.2016C22.9588 11.897 22.5573 10.178 22.1393 8.38319C21.5654 5.92306 20.9726 3.3777 17.86 1.86943C17.6616 1.77235 17.4207 1.83865 17.3003 2.0257C17.1798 2.21276 17.2153 2.459 17.3829 2.60344C19.2817 4.223 19.0148 6.78257 18.7291 9.49367C18.5094 11.5844 18.2851 13.7296 19.1046 15.4818C17.3428 14.8022 16.3155 13.3674 15.2456 11.8709C13.7767 9.81806 12.2582 7.69416 8.80545 7.49527C8.58581 7.48343 8.38744 7.63734 8.34729 7.85517C8.30714 8.07301 8.43467 8.28847 8.64486 8.35714C11.0183 9.1172 11.7481 11.5868 12.5203 14.2008C13.1154 16.2182 13.7271 18.2829 15.1512 19.5875C13.2642 19.6349 11.7669 18.7043 10.2059 17.7312C8.06389 16.3981 5.85103 15.0177 2.58488 16.159C2.3747 16.2324 2.25189 16.4502 2.29912 16.668C2.344 16.8859 2.54474 17.035 2.76673 17.0161C5.25118 16.8148 6.8689 18.8156 8.57873 20.9348C9.89889 22.5685 11.2521 24.2449 13.0658 24.9032C11.3419 25.6703 9.60368 25.3838 7.78994 25.0855C5.30313 24.6759 2.73131 24.2497 0.14767 26.5559C-0.0176454 26.7027 -0.0483467 26.9513 0.0768203 27.136C0.201987 27.3183 0.442875 27.3799 0.641253 27.2804C2.8612 26.1415 5.11656 27.3704 7.50654 28.6703C9.27541 29.634 11.0892 30.6214 12.936 30.6214C13.0115 30.6214 13.0895 30.619 13.165 30.6143C11.8638 31.9852 10.1492 32.3877 8.3591 32.8068C5.90535 33.3822 3.36659 33.9765 1.86222 37.0972C1.76539 37.2961 1.83152 37.5376 2.01809 37.6584C2.0913 37.7058 2.17632 37.7294 2.25898 37.7294C2.38414 37.7294 2.50931 37.675 2.59433 37.5732C4.20969 35.6695 6.76263 35.937 9.46671 36.2235C11.552 36.4437 13.6917 36.6687 15.4393 35.847C14.7615 37.6134 13.3304 38.6434 11.8378 39.716C9.79025 41.1888 7.67186 42.7112 7.47348 46.1729C7.46167 46.3955 7.61518 46.592 7.83245 46.6323C7.86079 46.637 7.88677 46.6394 7.91275 46.6394C8.10168 46.6394 8.27172 46.5186 8.33076 46.3339C9.09593 43.9543 11.5591 43.2227 14.1664 42.4484C16.1785 41.8517 18.2378 41.2385 19.5391 39.8107C19.5863 41.7026 18.6582 43.2037 17.6876 44.7688C16.358 46.9164 14.9811 49.135 16.1195 52.4097C16.1832 52.5896 16.3509 52.7056 16.5351 52.7056C16.5658 52.7056 16.5965 52.7033 16.6272 52.6962C16.8445 52.6512 16.9933 52.4499 16.9744 52.2273C16.7736 49.7364 18.7692 48.1145 20.8829 46.4002C22.5124 45.0766 24.1821 43.7199 24.841 41.9015C25.6062 43.6299 25.3228 45.3726 25.0228 47.1911C24.6143 49.6843 24.1892 52.2628 26.4894 54.8532C26.5768 54.9503 26.6972 55 26.8177 55C26.9027 55 26.9901 54.974 27.0657 54.9219C27.2475 54.7964 27.3089 54.5549 27.2097 54.356C26.0714 52.1326 27.2971 49.869 28.596 47.4728C29.5973 45.626 30.6223 43.7294 30.5349 41.7973C31.9023 43.1019 32.3038 44.8209 32.7218 46.6157C33.2957 49.0758 33.8884 51.6212 37.0011 53.1295C37.0625 53.1602 37.1286 53.1744 37.1924 53.1744C37.3364 53.1744 37.4781 53.1034 37.5608 52.9732C37.6812 52.7861 37.6458 52.5399 37.4781 52.3954C35.5794 50.7759 35.8462 48.2163 36.132 45.5028C36.3516 43.4121 36.576 41.2669 35.7565 39.5171C37.5183 40.1967 38.5456 41.6315 39.6154 43.1303C41.0844 45.1832 42.6029 47.3071 46.0556 47.506C46.0651 47.506 46.0722 47.506 46.0816 47.506C46.2918 47.506 46.476 47.3544 46.5138 47.1461C46.5539 46.9282 46.4264 46.7128 46.2162 46.6441C43.8428 45.877 43.113 43.4074 42.3408 40.7933C41.7456 38.776 41.134 36.7113 39.7099 35.4066C41.5968 35.3593 43.0941 36.2898 44.6552 37.263C46.2375 38.248 47.8599 39.259 49.9169 39.259C50.6443 39.259 51.4236 39.1335 52.2762 38.8352C52.4864 38.7618 52.6092 38.5439 52.5619 38.3261C52.5171 38.1083 52.3163 37.9591 52.0943 37.978C49.6099 38.1793 47.9922 36.1785 46.2823 34.0594C44.9622 32.4256 43.609 30.7492 41.7952 30.091C43.5263 29.3333 45.2645 29.6198 47.0782 29.9181Z" fill="#05A8E1"/>
<path d="M79.4162 11.5394C73.3042 11.5394 67.5442 16.0335 67.5442 23.5204C67.5442 31.1257 73.0799 35.5274 80.1931 35.5274C83.2491 35.5274 86.6333 34.5282 89.2406 32.8518L86.997 28.765C84.9731 29.7903 83.1877 30.3538 81.1189 30.3538C77.3804 30.3538 74.9692 28.8645 74.3008 25.559H89.8782C89.9703 24.9931 90.1616 23.7643 90.1616 22.5212C90.1593 16.3034 86.4538 11.5394 79.4162 11.5394ZM79.6429 16.7012C82.2667 16.7012 83.8159 18.1787 84.1607 21.0105H74.3788C75.0589 18.1408 76.986 16.7012 79.6429 16.7012Z" fill="white"/>
<path d="M108.904 11.5394C106.455 11.5394 103.942 12.7352 102.104 14.421H101.932L101.443 12.0935H95.9264V43.4642H102.697V36.7657L102.381 33.0554H102.539C104.164 34.6347 106.143 35.5274 108.148 35.5274C113.266 35.5274 118.048 31.0191 118.048 23.1771C118.05 16.114 114.598 11.5394 108.904 11.5394ZM106.61 29.9702C105.425 29.9702 103.975 29.5772 102.702 28.4525V19.2205C104.126 17.7122 105.463 17.0966 106.91 17.0966C109.78 17.0966 111.121 19.14 111.121 23.2434C111.121 27.9789 109.104 29.9702 106.61 29.9702Z" fill="white"/>
<path d="M134.615 11.5394C128.503 11.5394 122.743 16.0335 122.743 23.5204C122.743 31.1257 128.279 35.5274 135.392 35.5274C138.448 35.5274 141.832 34.5282 144.437 32.8518L142.193 28.765C140.169 29.7903 138.384 30.3538 136.315 30.3538C132.577 30.3538 130.166 28.8645 129.497 25.559H145.075C145.167 24.9931 145.358 23.7643 145.358 22.5212C145.358 16.3034 141.653 11.5394 134.615 11.5394ZM134.839 16.7012C137.463 16.7012 139.012 18.1787 139.357 21.0105H129.575C130.258 18.1408 132.185 16.7012 134.839 16.7012Z" fill="white"/>
<path d="M170.24 27.8676C168.599 29.0042 166.632 30.0484 164.237 30.0484C160.491 30.0484 157.825 27.5006 157.825 23.5464C157.825 19.578 160.536 17.0185 164.461 17.0185C166.176 17.0185 167.777 17.5867 169.517 18.8559L172.632 14.6483C170.727 12.8157 167.692 11.5394 164.093 11.5394C157.065 11.5394 150.896 15.9293 150.896 23.5464C150.896 31.1375 156.406 35.5274 163.597 35.5274C166.709 35.5274 170.224 34.469 172.973 32.1557L170.24 27.8676Z" fill="white"/>
<path d="M178.65 16.3034C178.65 17.3381 177.819 18.2095 176.756 18.2095C175.698 18.2095 174.878 17.35 174.878 16.3152C174.878 15.2805 175.703 14.4092 176.768 14.4092C177.826 14.4092 178.65 15.2639 178.65 16.3034ZM178.334 16.3034C178.334 15.4486 177.653 14.743 176.768 14.743C175.875 14.743 175.195 15.4581 175.195 16.3129C175.195 17.1676 175.87 17.8732 176.756 17.8732C177.649 17.8732 178.334 17.1582 178.334 16.3034ZM177.174 16.5662L177.608 17.1984H177.24L176.888 16.6278H176.806H176.366V17.1984H176.047V15.3089H176.806C177.297 15.3089 177.568 15.5433 177.568 15.9577C177.571 16.2537 177.431 16.4644 177.174 16.5662ZM176.806 16.3579C177.096 16.3579 177.268 16.2134 177.268 15.9601C177.268 15.7091 177.096 15.5741 176.806 15.5741H176.366V16.3555H176.806V16.3579Z" fill="white"/>
<path d="M201.655 1.71078H208.475V3.15987H203.272V5.55843H207.885V7.00751H203.272V9.4842H208.541V10.9333H201.655V1.71078Z" fill="white"/>
<path d="M210.102 9.5884L211.075 8.42819C211.956 9.19298 212.835 9.62628 213.978 9.62628C214.977 9.62628 215.607 9.16456 215.607 8.44002C215.607 7.78178 215.239 7.42662 213.531 7.01699C211.573 6.55527 210.471 5.97517 210.471 4.25143C210.471 2.66975 211.784 1.57584 213.612 1.57584C214.951 1.57584 216.016 1.98546 216.949 2.73605L216.082 3.96256C215.253 3.3422 214.426 3.01308 213.586 3.01308C212.639 3.01308 212.088 3.50084 212.088 4.13304C212.088 4.84574 212.509 5.16065 214.27 5.58212C216.214 6.05567 217.227 6.75417 217.227 8.3098C217.227 10.0359 215.874 11.0635 213.942 11.0635C212.535 11.0635 211.207 10.5758 210.102 9.5884Z" fill="white"/>
<path d="M218.984 6.32083C218.984 3.6997 220.942 1.55212 223.729 1.55212C225.424 1.55212 226.449 2.14407 227.328 2.98937L226.289 4.18746C225.552 3.50317 224.763 3.04146 223.712 3.04146C221.953 3.04146 220.678 4.49054 220.678 6.32083C220.678 8.12508 221.953 9.6002 223.712 9.6002C224.843 9.6002 225.566 9.13849 226.353 8.40211L227.392 9.45577C226.433 10.4573 225.382 11.0895 223.66 11.0895C220.982 11.0895 218.984 8.99642 218.984 6.32083Z" fill="white"/>
<path d="M228.681 6.32083C228.681 3.72574 230.679 1.55212 233.504 1.55212C236.328 1.55212 238.3 3.6997 238.3 6.32083C238.3 8.91591 236.302 11.0895 233.478 11.0895C230.653 11.0895 228.681 8.94196 228.681 6.32083ZM236.604 6.32083C236.604 4.52842 235.303 3.04146 233.478 3.04146C231.652 3.04146 230.377 4.50474 230.377 6.32083C230.377 8.11324 231.678 9.6002 233.504 9.6002C235.332 9.60257 236.604 8.13928 236.604 6.32083Z" fill="white"/>
<path d="M240.52 1.71078H242.135V9.45579H246.97V10.9309H240.518V1.71078H240.52Z" fill="white"/>
<path d="M252.175 1.64447H253.672L257.72 10.9309H256.012L255.08 8.70519H250.729L249.785 10.9309H248.129L252.175 1.64447ZM254.487 7.27031L252.897 3.58131L251.32 7.27031H254.487Z" fill="white"/>
<path d="M201.655 15.6617H205.282C207.424 15.6617 208.777 16.8859 208.777 18.7706C208.777 20.8401 207.122 21.9198 205.098 21.9198H203.272V24.8842H201.657V15.6617H201.655ZM205.15 20.4565C206.373 20.4565 207.134 19.7722 207.134 18.7825C207.134 17.7028 206.359 17.1369 205.15 17.1369H203.272V20.4565H205.15Z" fill="white"/>
<path d="M210.695 15.6617H217.515V17.1108H212.31V19.5094H216.923V20.9585H212.31V23.4352H217.579V24.8842H210.693V15.6617H210.695Z" fill="white"/>
<path d="M219.761 15.6617H223.861C226.017 15.6617 227.278 16.8196 227.278 18.6002C227.278 20.1155 226.372 21.0248 225.084 21.3941L227.569 24.8842H225.663L223.377 21.6688H221.379V24.8842H219.764V15.6617H219.761ZM223.741 20.2339C224.898 20.2339 225.632 19.6278 225.632 18.6665C225.632 17.6791 224.922 17.1392 223.727 17.1392H221.374V20.2339H223.741Z" fill="white"/>
<path d="M229.522 15.6617H231.019L235.946 22.0382V15.6617H237.535V24.8842H236.182L231.109 18.3231V24.8842H229.52V15.6617H229.522Z" fill="white"/>
<path d="M243.425 15.5955H244.922L248.97 24.8819H247.263L246.33 22.6562H241.98L241.035 24.8819H239.379L243.425 15.5955ZM245.737 21.2213L244.148 17.5323L242.57 21.2213H245.737Z" fill="white"/>
<path d="M250.807 15.6617H252.529L255.328 20.0232L258.126 15.6617H259.848V24.8842H258.232V18.271L255.328 22.6183H255.276L252.397 18.2971V24.8842H250.807V15.6617V15.6617Z" fill="white"/>
<path d="M262.474 15.6617H266.6C267.651 15.6617 268.477 15.9506 269.004 16.4786C269.412 16.8883 269.623 17.3879 269.623 18.0343C269.623 19.14 268.992 19.7343 268.309 20.0895C269.386 20.4589 270.135 21.0769 270.135 22.3555C270.135 24.0034 268.782 24.8842 266.732 24.8842H262.474V15.6617ZM266.271 19.5473C267.311 19.5473 268.007 19.1376 268.007 18.2687C268.007 17.5441 267.429 17.0966 266.392 17.0966H264.066V19.5473H266.271V19.5473ZM266.746 23.447C267.849 23.447 268.52 23.0113 268.52 22.1566C268.52 21.3799 267.901 20.9182 266.628 20.9182H264.066V23.447H266.746Z" fill="white"/>
<path d="M272.081 20.9703V15.6617H273.696V20.904C273.696 22.6159 274.577 23.5393 276.023 23.5393C277.456 23.5393 278.335 22.6704 278.335 20.9703V15.6617H279.95V20.8922C279.95 23.6459 278.398 25.0287 275.994 25.0287C273.604 25.0287 272.081 23.6459 272.081 20.9703Z" fill="white"/>
<path d="M282.026 20.2718C282.026 17.6507 283.984 15.5031 286.771 15.5031C288.466 15.5031 289.491 16.0951 290.372 16.9404L289.333 18.1385C288.596 17.4542 287.807 16.9924 286.756 16.9924C284.997 16.9924 283.722 18.4415 283.722 20.2718C283.722 22.0761 284.997 23.5512 286.756 23.5512C287.888 23.5512 288.61 23.0895 289.399 22.3531L290.436 23.4068C289.477 24.4083 288.426 25.0405 286.704 25.0405C284.022 25.0405 282.026 22.9474 282.026 20.2718Z" fill="white"/>
<path d="M295.65 15.5955H297.148L301.195 24.8819H299.488L298.555 22.6562H294.205L293.26 24.8819H291.605L295.65 15.5955ZM297.965 21.2213L296.375 17.5323L294.798 21.2213H297.965Z" fill="white"/>
<path d="M303.035 15.6617H304.532L309.459 22.0382V15.6617H311.048V24.8842H309.695L304.622 18.3231V24.8842H303.033V15.6617H303.035Z" fill="white"/>
<path d="M316.936 15.5955H318.433L322.481 24.8819H320.773L319.841 22.6562H315.49L314.543 24.8819H312.888L316.936 15.5955ZM319.248 21.2213L317.658 17.5323L316.081 21.2213H319.248Z" fill="white"/>
<path d="M201.655 29.6127H205.084C207.974 29.6127 209.972 31.6016 209.972 34.2227C209.972 36.8178 207.974 38.8328 205.084 38.8328H201.655V29.6127ZM205.084 37.36C207.015 37.36 208.277 36.0554 208.277 34.2251C208.277 32.4209 207.015 31.0902 205.084 31.0902H203.27V37.36H205.084V37.36Z" fill="white"/>
<path d="M212.192 29.6127H219.013V31.0618H213.81V33.4603H218.422V34.9094H213.81V37.3861H219.079V38.8352H212.192V29.6127Z" fill="white"/>
<path d="M225.462 29.6127H232.283V31.0618H227.08V33.4603H231.692V34.9094H227.08V37.3861H232.349V38.8352H225.462V29.6127Z" fill="white"/>
<path d="M234.12 34.2227C234.12 31.6016 236.078 29.454 238.865 29.454C240.56 29.454 241.585 30.046 242.464 30.8913L241.425 32.0894C240.688 31.4051 239.899 30.9434 238.848 30.9434C237.089 30.9434 235.813 32.3925 235.813 34.2227C235.813 36.027 237.089 37.5021 238.848 37.5021C239.979 37.5021 240.702 37.0404 241.488 36.304L242.527 37.3577C241.569 38.3593 240.518 38.9915 238.796 38.9915C236.118 38.9915 234.12 36.8983 234.12 34.2227Z" fill="white"/>
<path d="M243.817 34.2227C243.817 31.6277 245.815 29.454 248.639 29.454C251.464 29.454 253.436 31.6016 253.436 34.2227C253.436 36.8178 251.438 38.9915 248.613 38.9915C245.789 38.9915 243.817 36.8462 243.817 34.2227ZM251.74 34.2227C251.74 32.4303 250.439 30.9434 248.613 30.9434C246.788 30.9434 245.513 32.4067 245.513 34.2227C245.513 36.0152 246.814 37.5021 248.639 37.5021C250.467 37.5045 251.74 36.0412 251.74 34.2227Z" fill="white"/>
<path d="M255.656 29.6127H257.153L262.08 35.9891V29.6127H263.669V38.8352H262.316L257.243 32.2741V38.8352H255.654V29.6127H255.656Z" fill="white"/>
<path d="M265.891 34.2227C265.891 31.6277 267.889 29.454 270.714 29.454C273.538 29.454 275.51 31.6016 275.51 34.2227C275.51 36.8178 273.512 38.9915 270.688 38.9915C267.863 38.9915 265.891 36.8462 265.891 34.2227ZM273.815 34.2227C273.815 32.4303 272.513 30.9434 270.688 30.9434C268.862 30.9434 267.587 32.4067 267.587 34.2227C267.587 36.0152 268.888 37.5021 270.714 37.5021C272.539 37.5045 273.815 36.0412 273.815 34.2227Z" fill="white"/>
<path d="M277.73 29.6127H279.452L282.25 33.9741L285.049 29.6127H286.77V38.8352H285.155V32.222L282.25 36.5692H282.198L279.319 32.248V38.8352H277.73V29.6127V29.6127Z" fill="white"/>
<path d="M289.489 29.6127H291.104V38.8352H289.489V29.6127Z" fill="white"/>
<path d="M297.084 29.5464H298.581L302.629 38.8328H300.921L299.988 36.6071H295.638L294.691 38.8328H293.036L297.084 29.5464ZM299.396 35.1722L297.806 31.4832L296.229 35.1722H299.396Z" fill="white"/>
<path d="M201.248 48.1737C201.248 45.5525 203.206 43.405 205.993 43.405C207.688 43.405 208.713 43.9969 209.594 44.8422L208.555 46.0403C207.818 45.356 207.03 44.8943 205.979 44.8943C204.219 44.8943 202.944 46.3434 202.944 48.1737C202.944 49.9779 204.219 51.4531 205.979 51.4531C207.11 51.4531 207.833 50.9913 208.621 50.255L209.658 51.3086C208.699 52.3102 207.648 52.9424 205.927 52.9424C203.244 52.9424 201.248 50.8493 201.248 48.1737Z" fill="white"/>
<path d="M211.614 43.5636H215.713C217.87 43.5636 219.131 44.7215 219.131 46.502C219.131 48.0174 218.224 48.9266 216.937 49.296L219.419 52.7861H217.513L215.227 49.5707H213.229V52.7861H211.611V43.5636H211.614ZM215.595 48.1358C216.752 48.1358 217.487 47.5297 217.487 46.5683C217.487 45.581 216.776 45.0411 215.581 45.0411H213.229V48.1358H215.595Z" fill="white"/>
<path d="M221.469 43.5636H223.084V52.7861H221.469V43.5636Z" fill="white"/>
<path d="M229.061 43.4973H230.559L234.606 52.7837H232.899L231.966 50.558H227.616L226.671 52.7837H225.016L229.061 43.4973ZM231.376 49.1232L229.786 45.4342L228.209 49.1232H231.376Z" fill="white"/>
<path d="M237.523 45.0648H234.607V43.5636H242.069V45.0648H239.153V52.7838H237.523V45.0648Z" fill="white"/>
<path d="M244.133 43.5636H245.749V52.7861H244.133V43.5636Z" fill="white"/>
<path d="M247.681 43.5636H249.468L252.241 50.6504L254.999 43.5636H256.747L252.923 52.8501H251.504L247.681 43.5636Z" fill="white"/>
<path d="M260.53 43.4973H262.028L266.075 52.7837H264.368L263.435 50.558H259.085L258.14 52.7837H256.485L260.53 43.4973ZM262.842 49.1232L261.253 45.4342L259.675 49.1232H262.842Z" fill="white"/>
<path d="M193.76 1.70605H192.645V52.7861H193.76V1.70605Z" fill="white"/>
</svg>
