<?xml version="1.0" encoding="utf-8"?>
<!-- Generator: Adobe Illustrator 26.0.2, SVG Export Plug-In . SVG Version: 6.00 Build 0)  -->
<svg version="1.1" id="Camada_1" xmlns="http://www.w3.org/2000/svg" xmlns:xlink="http://www.w3.org/1999/xlink" x="0px" y="0px"
	 viewBox="0 0 120.9 117.9" style="enable-background:new 0 0 120.9 117.9;" xml:space="preserve">
<style type="text/css">
	.st0{fill:#330000;}
	.st1{fill:#FF9A00;}
</style>
<g id="Layer_2_1_">
	<g id="Surfaces">
		<g id="Drawing_Surface">
			<g id="Outline_no_shadow">
				<path class="st0" d="M21.4,0h78.1c11.8,0,21.4,9.6,21.4,21.4v75c0,11.8-9.6,21.4-21.4,21.4H21.4C9.6,117.9,0,108.3,0,96.4v-75
					C0,9.6,9.6,0,21.4,0z"/>
			</g>
		</g>
	</g>
	<g id="Outlined_Mnemonics_Logos">
		<g id="Ai">
			<path class="st1" d="M58.6,70.7H39.8L36,82.5c-0.1,0.5-0.5,0.8-1,0.7h-9.5c-0.6,0-0.7-0.3-0.6-0.9l16.2-46.7
				c0.2-0.5,0.3-1.1,0.5-1.7c0.2-1.1,0.3-2.2,0.3-3.3c-0.1-0.3,0.2-0.5,0.4-0.6c0.1,0,0.1,0,0.2,0h12.9c0.4,0,0.6,0.2,0.7,0.4
				l18.4,51.9c0.2,0.6,0,0.8-0.5,0.8H63.5c-0.4,0.1-0.7-0.2-0.8-0.6L58.6,70.7z M42.8,60.5h12.8c-0.3-1.1-0.7-2.3-1.2-3.6
				c-0.5-1.4-0.9-2.8-1.4-4.3c-0.5-1.6-1-3.1-1.5-4.6c-0.5-1.6-1-3-1.4-4.5c-0.4-1.4-0.8-2.7-1.1-3.9H49c-0.5,2.2-1,4.3-1.7,6.5
				c-0.8,2.4-1.5,4.9-2.3,7.5C44.3,56,43.5,58.4,42.8,60.5L42.8,60.5z"/>
			<path class="st1" d="M85.5,38.8c-1.7,0.1-3.3-0.6-4.5-1.8c-1.2-1.3-1.8-2.9-1.7-4.6c-0.1-1.7,0.6-3.3,1.8-4.5
				c1.2-1.2,2.8-1.8,4.5-1.8c2,0,3.5,0.6,4.6,1.8c1.1,1.2,1.7,2.8,1.7,4.5c0.1,1.7-0.6,3.4-1.8,4.6C88.9,38.2,87.2,38.9,85.5,38.8z
				 M79.9,82.5V43.7c0-0.5,0.2-0.7,0.7-0.7h10c0.5,0,0.7,0.3,0.7,0.7v38.8c0,0.6-0.2,0.8-0.7,0.8h-9.9C80.1,83.3,79.9,83,79.9,82.5z
				"/>
		</g>
	</g>
</g>
</svg>
