<?xml version="1.0" encoding="utf-8"?>
<!-- Generator: Adobe Illustrator 26.0.2, SVG Export Plug-In . SVG Version: 6.00 Build 0)  -->
<svg version="1.1" id="Camada_1" xmlns="http://www.w3.org/2000/svg" xmlns:xlink="http://www.w3.org/1999/xlink" x="0px" y="0px"
	 viewBox="0 0 323 55" style="enable-background:new 0 0 323 55;" xml:space="preserve">
<style type="text/css">
	.st0{fill:#05A8E1;}
</style>
<path class="st0" d="M47.1,29.9c2.5,0.4,5.1,0.8,7.6-1.5c0.2-0.1,0.2-0.4,0.1-0.6c-0.1-0.2-0.4-0.2-0.6-0.1
	c-2.2,1.1-4.5-0.1-6.9-1.4c-1.8-1-3.7-2-5.7-1.9c1.3-1.4,3-1.8,4.8-2.2c2.5-0.6,5-1.2,6.5-4.3c0.1-0.2,0-0.4-0.2-0.6
	c-0.2-0.1-0.4-0.1-0.6,0.1c-1.6,1.9-4.2,1.6-6.9,1.3c-2.1-0.2-4.2-0.4-6,0.4c0.7-1.8,2.1-2.8,3.6-3.9c2-1.5,4.2-3,4.4-6.5
	c0-0.2-0.1-0.4-0.4-0.5c-0.2,0-0.4,0.1-0.5,0.3c-0.8,2.4-3.2,3.1-5.8,3.9c-2,0.6-4.1,1.2-5.4,2.6c0-1.9,0.9-3.4,1.9-5
	c1.3-2.1,2.7-4.4,1.6-7.6c-0.1-0.2-0.3-0.3-0.5-0.3c-0.2,0-0.4,0.2-0.3,0.5c0.2,2.5-1.8,4.1-3.9,5.8c-1.6,1.3-3.3,2.7-4,4.5
	c-0.8-1.7-0.5-3.5-0.2-5.3c0.4-2.5,0.8-5.1-1.5-7.7C28.2,0,28,0,27.8,0.1c-0.2,0.1-0.2,0.4-0.1,0.6c1.1,2.2-0.1,4.5-1.4,6.9
	c-1,1.8-2,3.7-1.9,5.7c-1.4-1.3-1.8-3-2.2-4.8c-0.6-2.5-1.2-5-4.3-6.5c-0.2-0.1-0.4,0-0.6,0.2c-0.1,0.2-0.1,0.4,0.1,0.6
	c1.9,1.6,1.6,4.2,1.3,6.9c-0.2,2.1-0.4,4.2,0.4,6c-1.8-0.7-2.8-2.1-3.9-3.6c-1.5-2.1-3-4.2-6.4-4.4c-0.2,0-0.4,0.1-0.5,0.4
	c0,0.2,0.1,0.4,0.3,0.5c2.4,0.8,3.1,3.2,3.9,5.8c0.6,2,1.2,4.1,2.6,5.4c-1.9,0-3.4-0.9-4.9-1.9c-2.1-1.3-4.4-2.7-7.6-1.6
	c-0.2,0.1-0.3,0.3-0.3,0.5c0,0.2,0.2,0.4,0.5,0.3c2.5-0.2,4.1,1.8,5.8,3.9c1.3,1.6,2.7,3.3,4.5,4c-1.7,0.8-3.5,0.5-5.3,0.2
	c-2.5-0.4-5.1-0.8-7.6,1.5C0,26.7,0,27,0.1,27.1c0.1,0.2,0.4,0.2,0.6,0.1c2.2-1.1,4.5,0.1,6.9,1.4c1.8,1,3.6,2,5.4,2
	c0.1,0,0.2,0,0.2,0c-1.3,1.4-3,1.8-4.8,2.2c-2.5,0.6-5,1.2-6.5,4.3c-0.1,0.2,0,0.4,0.2,0.6c0.1,0,0.2,0.1,0.2,0.1
	c0.1,0,0.3-0.1,0.3-0.2c1.6-1.9,4.2-1.6,6.9-1.3c2.1,0.2,4.2,0.4,6-0.4c-0.7,1.8-2.1,2.8-3.6,3.9c-2,1.5-4.2,3-4.4,6.5
	c0,0.2,0.1,0.4,0.4,0.5c0,0,0.1,0,0.1,0c0.2,0,0.4-0.1,0.4-0.3c0.8-2.4,3.2-3.1,5.8-3.9c2-0.6,4.1-1.2,5.4-2.6c0,1.9-0.9,3.4-1.9,5
	c-1.3,2.1-2.7,4.4-1.6,7.6c0.1,0.2,0.2,0.3,0.4,0.3c0,0,0.1,0,0.1,0c0.2,0,0.4-0.2,0.3-0.5c-0.2-2.5,1.8-4.1,3.9-5.8
	c1.6-1.3,3.3-2.7,4-4.5c0.8,1.7,0.5,3.5,0.2,5.3c-0.4,2.5-0.8,5.1,1.5,7.7c0.1,0.1,0.2,0.1,0.3,0.1c0.1,0,0.2,0,0.2-0.1
	c0.2-0.1,0.2-0.4,0.1-0.6c-1.1-2.2,0.1-4.5,1.4-6.9c1-1.8,2-3.7,1.9-5.7c1.4,1.3,1.8,3,2.2,4.8c0.6,2.5,1.2,5,4.3,6.5
	c0.1,0,0.1,0,0.2,0c0.1,0,0.3-0.1,0.4-0.2c0.1-0.2,0.1-0.4-0.1-0.6c-1.9-1.6-1.6-4.2-1.3-6.9c0.2-2.1,0.4-4.2-0.4-6
	c1.8,0.7,2.8,2.1,3.9,3.6c1.5,2.1,3,4.2,6.4,4.4c0,0,0,0,0,0c0.2,0,0.4-0.2,0.4-0.4c0-0.2-0.1-0.4-0.3-0.5c-2.4-0.8-3.1-3.2-3.9-5.9
	c-0.6-2-1.2-4.1-2.6-5.4c1.9,0,3.4,0.9,4.9,1.9c1.6,1,3.2,2,5.3,2c0.7,0,1.5-0.1,2.4-0.4c0.2-0.1,0.3-0.3,0.3-0.5
	c0-0.2-0.2-0.4-0.5-0.3c-2.5,0.2-4.1-1.8-5.8-3.9c-1.3-1.6-2.7-3.3-4.5-4C43.5,29.3,45.3,29.6,47.1,29.9z"/>
<path d="M79.4,11.5c-6.1,0-11.9,4.5-11.9,12c0,7.6,5.5,12,12.6,12c3.1,0,6.4-1,9-2.7L87,28.8c-2,1-3.8,1.6-5.9,1.6
	c-3.7,0-6.1-1.5-6.8-4.8h15.6c0.1-0.6,0.3-1.8,0.3-3C90.2,16.3,86.5,11.5,79.4,11.5z M79.6,16.7c2.6,0,4.2,1.5,4.5,4.3h-9.8
	C75.1,18.1,77,16.7,79.6,16.7z"/>
<path d="M108.9,11.5c-2.4,0-5,1.2-6.8,2.9h-0.2l-0.5-2.3h-5.5v31.4h6.8v-6.7l-0.3-3.7h0.2c1.6,1.6,3.6,2.5,5.6,2.5
	c5.1,0,9.9-4.5,9.9-12.4C118.1,16.1,114.6,11.5,108.9,11.5z M106.6,30c-1.2,0-2.6-0.4-3.9-1.5v-9.2c1.4-1.5,2.8-2.1,4.2-2.1
	c2.9,0,4.2,2,4.2,6.1C111.1,28,109.1,30,106.6,30z"/>
<path d="M134.6,11.5c-6.1,0-11.9,4.5-11.9,12c0,7.6,5.5,12,12.6,12c3.1,0,6.4-1,9-2.7l-2.2-4.1c-2,1-3.8,1.6-5.9,1.6
	c-3.7,0-6.1-1.5-6.8-4.8h15.6c0.1-0.6,0.3-1.8,0.3-3C145.4,16.3,141.7,11.5,134.6,11.5z M134.8,16.7c2.6,0,4.2,1.5,4.5,4.3h-9.8
	C130.3,18.1,132.2,16.7,134.8,16.7z"/>
<path d="M170.2,27.9c-1.6,1.1-3.6,2.2-6,2.2c-3.7,0-6.4-2.5-6.4-6.5c0-4,2.7-6.5,6.6-6.5c1.7,0,3.3,0.6,5.1,1.8l3.1-4.2
	c-1.9-1.8-4.9-3.1-8.5-3.1c-7,0-13.2,4.4-13.2,12c0,7.6,5.5,12,12.7,12c3.1,0,6.6-1.1,9.4-3.4L170.2,27.9z"/>
<path d="M178.6,16.3c0,1-0.8,1.9-1.9,1.9c-1.1,0-1.9-0.9-1.9-1.9c0-1,0.8-1.9,1.9-1.9C177.8,14.4,178.6,15.3,178.6,16.3z
	 M178.3,16.3c0-0.9-0.7-1.6-1.6-1.6c-0.9,0-1.6,0.7-1.6,1.6c0,0.9,0.7,1.6,1.6,1.6C177.6,17.9,178.3,17.2,178.3,16.3z M177.2,16.6
	l0.4,0.6h-0.4l-0.4-0.6h-0.1h-0.4v0.6H176v-1.9h0.8c0.5,0,0.8,0.2,0.8,0.6C177.6,16.3,177.4,16.5,177.2,16.6z M176.8,16.4
	c0.3,0,0.5-0.1,0.5-0.4c0-0.3-0.2-0.4-0.5-0.4h-0.4v0.8L176.8,16.4L176.8,16.4z"/>
<path d="M201.7,1.7h6.8v1.4h-5.2v2.4h4.6V7h-4.6v2.5h5.3v1.4h-6.9V1.7z"/>
<path d="M210.1,9.6l1-1.2c0.9,0.8,1.8,1.2,2.9,1.2c1,0,1.6-0.5,1.6-1.2c0-0.7-0.4-1-2.1-1.4c-2-0.5-3.1-1-3.1-2.8
	c0-1.6,1.3-2.7,3.1-2.7c1.3,0,2.4,0.4,3.3,1.2L216.1,4c-0.8-0.6-1.7-0.9-2.5-0.9c-0.9,0-1.5,0.5-1.5,1.1c0,0.7,0.4,1,2.2,1.4
	c1.9,0.5,3,1.2,3,2.7c0,1.7-1.4,2.8-3.3,2.8C212.5,11.1,211.2,10.6,210.1,9.6z"/>
<path d="M219,6.3c0-2.6,2-4.8,4.7-4.8c1.7,0,2.7,0.6,3.6,1.4l-1,1.2c-0.7-0.7-1.5-1.1-2.6-1.1c-1.8,0-3,1.4-3,3.3
	c0,1.8,1.3,3.3,3,3.3c1.1,0,1.9-0.5,2.6-1.2l1,1.1c-1,1-2,1.6-3.7,1.6C221,11.1,219,9,219,6.3z"/>
<path d="M228.7,6.3c0-2.6,2-4.8,4.8-4.8c2.8,0,4.8,2.1,4.8,4.8c0,2.6-2,4.8-4.8,4.8C230.7,11.1,228.7,8.9,228.7,6.3z M236.6,6.3
	c0-1.8-1.3-3.3-3.1-3.3c-1.8,0-3.1,1.5-3.1,3.3c0,1.8,1.3,3.3,3.1,3.3C235.3,9.6,236.6,8.1,236.6,6.3z"/>
<path d="M240.5,1.7h1.6v7.7h4.8v1.5h-6.5L240.5,1.7L240.5,1.7z"/>
<path d="M252.2,1.6h1.5l4,9.3H256l-0.9-2.2h-4.4l-0.9,2.2h-1.7L252.2,1.6z M254.5,7.3l-1.6-3.7l-1.6,3.7H254.5z"/>
<path d="M201.7,15.7h3.6c2.1,0,3.5,1.2,3.5,3.1c0,2.1-1.7,3.1-3.7,3.1h-1.8v3h-1.6L201.7,15.7L201.7,15.7z M205.1,20.5
	c1.2,0,2-0.7,2-1.7c0-1.1-0.8-1.6-2-1.6h-1.9v3.3H205.1z"/>
<path d="M210.7,15.7h6.8v1.4h-5.2v2.4h4.6V21h-4.6v2.5h5.3v1.4h-6.9L210.7,15.7L210.7,15.7z"/>
<path d="M219.8,15.7h4.1c2.2,0,3.4,1.2,3.4,2.9c0,1.5-0.9,2.4-2.2,2.8l2.5,3.5h-1.9l-2.3-3.2h-2v3.2h-1.6L219.8,15.7L219.8,15.7z
	 M223.7,20.2c1.2,0,1.9-0.6,1.9-1.6c0-1-0.7-1.5-1.9-1.5h-2.4v3.1H223.7z"/>
<path d="M229.5,15.7h1.5l4.9,6.4v-6.4h1.6v9.2h-1.4l-5.1-6.6v6.6h-1.6L229.5,15.7L229.5,15.7z"/>
<path d="M243.4,15.6h1.5l4,9.3h-1.7l-0.9-2.2H242l-0.9,2.2h-1.7L243.4,15.6z M245.7,21.2l-1.6-3.7l-1.6,3.7H245.7z"/>
<path d="M250.8,15.7h1.7l2.8,4.4l2.8-4.4h1.7v9.2h-1.6v-6.6l-2.9,4.3h-0.1l-2.9-4.3v6.6h-1.6V15.7L250.8,15.7z"/>
<path d="M262.5,15.7h4.1c1.1,0,1.9,0.3,2.4,0.8c0.4,0.4,0.6,0.9,0.6,1.6c0,1.1-0.6,1.7-1.3,2.1c1.1,0.4,1.8,1,1.8,2.3
	c0,1.6-1.4,2.5-3.4,2.5h-4.3V15.7z M266.3,19.5c1,0,1.7-0.4,1.7-1.3c0-0.7-0.6-1.2-1.6-1.2h-2.3v2.5H266.3L266.3,19.5z M266.7,23.4
	c1.1,0,1.8-0.4,1.8-1.3c0-0.8-0.6-1.2-1.9-1.2h-2.6v2.5H266.7z"/>
<path d="M272.1,21v-5.3h1.6v5.2c0,1.7,0.9,2.6,2.3,2.6c1.4,0,2.3-0.9,2.3-2.6v-5.3h1.6v5.2c0,2.8-1.6,4.1-4,4.1
	C273.6,25,272.1,23.6,272.1,21z"/>
<path d="M282,20.3c0-2.6,2-4.8,4.7-4.8c1.7,0,2.7,0.6,3.6,1.4l-1,1.2c-0.7-0.7-1.5-1.1-2.6-1.1c-1.8,0-3,1.4-3,3.3
	c0,1.8,1.3,3.3,3,3.3c1.1,0,1.9-0.5,2.6-1.2l1,1.1c-1,1-2,1.6-3.7,1.6C284,25,282,22.9,282,20.3z"/>
<path d="M295.6,15.6h1.5l4,9.3h-1.7l-0.9-2.2h-4.4l-0.9,2.2h-1.7L295.6,15.6z M298,21.2l-1.6-3.7l-1.6,3.7H298z"/>
<path d="M303,15.7h1.5l4.9,6.4v-6.4h1.6v9.2h-1.4l-5.1-6.6v6.6H303L303,15.7L303,15.7z"/>
<path d="M316.9,15.6h1.5l4,9.3h-1.7l-0.9-2.2h-4.4l-0.9,2.2h-1.7L316.9,15.6z M319.2,21.2l-1.6-3.7l-1.6,3.7H319.2z"/>
<path d="M201.7,29.6h3.4c2.9,0,4.9,2,4.9,4.6c0,2.6-2,4.6-4.9,4.6h-3.4V29.6z M205.1,37.4c1.9,0,3.2-1.3,3.2-3.1
	c0-1.8-1.3-3.1-3.2-3.1h-1.8v6.3H205.1L205.1,37.4z"/>
<path d="M212.2,29.6h6.8v1.4h-5.2v2.4h4.6v1.4h-4.6v2.5h5.3v1.4h-6.9V29.6z"/>
<path d="M225.5,29.6h6.8v1.4h-5.2v2.4h4.6v1.4h-4.6v2.5h5.3v1.4h-6.9V29.6z"/>
<path d="M234.1,34.2c0-2.6,2-4.8,4.7-4.8c1.7,0,2.7,0.6,3.6,1.4l-1,1.2c-0.7-0.7-1.5-1.1-2.6-1.1c-1.8,0-3,1.4-3,3.3
	c0,1.8,1.3,3.3,3,3.3c1.1,0,1.9-0.5,2.6-1.2l1,1.1c-1,1-2,1.6-3.7,1.6C236.1,39,234.1,36.9,234.1,34.2z"/>
<path d="M243.8,34.2c0-2.6,2-4.8,4.8-4.8c2.8,0,4.8,2.1,4.8,4.8c0,2.6-2,4.8-4.8,4.8C245.8,39,243.8,36.8,243.8,34.2z M251.7,34.2
	c0-1.8-1.3-3.3-3.1-3.3c-1.8,0-3.1,1.5-3.1,3.3c0,1.8,1.3,3.3,3.1,3.3C250.5,37.5,251.7,36,251.7,34.2z"/>
<path d="M255.7,29.6h1.5l4.9,6.4v-6.4h1.6v9.2h-1.4l-5.1-6.6v6.6h-1.6L255.7,29.6L255.7,29.6z"/>
<path d="M265.9,34.2c0-2.6,2-4.8,4.8-4.8c2.8,0,4.8,2.1,4.8,4.8c0,2.6-2,4.8-4.8,4.8C267.9,39,265.9,36.8,265.9,34.2z M273.8,34.2
	c0-1.8-1.3-3.3-3.1-3.3c-1.8,0-3.1,1.5-3.1,3.3c0,1.8,1.3,3.3,3.1,3.3C272.5,37.5,273.8,36,273.8,34.2z"/>
<path d="M277.7,29.6h1.7l2.8,4.4l2.8-4.4h1.7v9.2h-1.6v-6.6l-2.9,4.3h-0.1l-2.9-4.3v6.6h-1.6V29.6L277.7,29.6z"/>
<path d="M289.5,29.6h1.6v9.2h-1.6V29.6z"/>
<path d="M297.1,29.5h1.5l4,9.3h-1.7l-0.9-2.2h-4.4l-0.9,2.2H293L297.1,29.5z M299.4,35.2l-1.6-3.7l-1.6,3.7H299.4z"/>
<path d="M201.2,48.2c0-2.6,2-4.8,4.7-4.8c1.7,0,2.7,0.6,3.6,1.4l-1,1.2c-0.7-0.7-1.5-1.1-2.6-1.1c-1.8,0-3,1.4-3,3.3
	c0,1.8,1.3,3.3,3,3.3c1.1,0,1.9-0.5,2.6-1.2l1,1.1c-1,1-2,1.6-3.7,1.6C203.2,52.9,201.2,50.8,201.2,48.2z"/>
<path d="M211.6,43.6h4.1c2.2,0,3.4,1.2,3.4,2.9c0,1.5-0.9,2.4-2.2,2.8l2.5,3.5h-1.9l-2.3-3.2h-2v3.2h-1.6L211.6,43.6L211.6,43.6z
	 M215.6,48.1c1.2,0,1.9-0.6,1.9-1.6c0-1-0.7-1.5-1.9-1.5h-2.4v3.1H215.6z"/>
<path d="M221.5,43.6h1.6v9.2h-1.6V43.6z"/>
<path d="M229.1,43.5h1.5l4,9.3h-1.7l-0.9-2.2h-4.4l-0.9,2.2H225L229.1,43.5z M231.4,49.1l-1.6-3.7l-1.6,3.7H231.4z"/>
<path d="M237.5,45.1h-2.9v-1.5h7.5v1.5h-2.9v7.7h-1.6V45.1z"/>
<path d="M244.1,43.6h1.6v9.2h-1.6V43.6z"/>
<path d="M247.7,43.6h1.8l2.8,7.1l2.8-7.1h1.7l-3.8,9.3h-1.4L247.7,43.6z"/>
<path d="M260.5,43.5h1.5l4,9.3h-1.7l-0.9-2.2h-4.4l-0.9,2.2h-1.7L260.5,43.5z M262.8,49.1l-1.6-3.7l-1.6,3.7H262.8z"/>
<path d="M193.8,1.7h-1.1v51.1h1.1V1.7z"/>
</svg>
