<?xml version="1.0" encoding="utf-8"?>
<!-- Generator: Adobe Illustrator 26.0.2, SVG Export Plug-In . SVG Version: 6.00 Build 0)  -->
<svg version="1.1" id="Camada_1" xmlns="http://www.w3.org/2000/svg" xmlns:xlink="http://www.w3.org/1999/xlink" x="0px" y="0px"
	 viewBox="0 0 178.6 55" style="enable-background:new 0 0 178.6 55;" xml:space="preserve">
<style type="text/css">
	.st0{fill:#05A8E1;}
	.st1{fill:#FFFFFF;}
</style>
<path class="st0" d="M47.1,29.9c2.5,0.4,5.1,0.8,7.6-1.5c0.2-0.1,0.2-0.4,0.1-0.6c-0.1-0.2-0.4-0.2-0.6-0.1
	c-2.2,1.1-4.5-0.1-6.9-1.4c-1.8-1-3.7-2-5.7-1.9c1.3-1.4,3-1.8,4.8-2.2c2.5-0.6,5-1.2,6.5-4.3c0.1-0.2,0-0.4-0.2-0.6
	c-0.2-0.1-0.4-0.1-0.6,0.1c-1.6,1.9-4.2,1.6-6.9,1.3c-2.1-0.2-4.2-0.4-6,0.4c0.7-1.8,2.1-2.8,3.6-3.9c2-1.5,4.2-3,4.4-6.5
	c0-0.2-0.1-0.4-0.4-0.5c-0.2,0-0.4,0.1-0.5,0.3c-0.8,2.4-3.2,3.1-5.8,3.9c-2,0.6-4.1,1.2-5.4,2.6c0-1.9,0.9-3.4,1.9-5
	c1.3-2.1,2.7-4.4,1.6-7.6c-0.1-0.2-0.3-0.3-0.5-0.3s-0.4,0.2-0.3,0.5C38,5.1,36,6.7,33.9,8.4c-1.6,1.3-3.3,2.7-4,4.5
	c-0.8-1.7-0.5-3.5-0.2-5.3c0.4-2.5,0.8-5.1-1.5-7.7C28.2,0,28,0,27.8,0.1s-0.2,0.4-0.1,0.6c1.1,2.2-0.1,4.5-1.4,6.9
	c-1,1.8-2,3.7-1.9,5.7c-1.4-1.3-1.8-3-2.2-4.8C21.6,6,21,3.5,17.9,2c-0.2-0.1-0.4,0-0.6,0.2c-0.1,0.2-0.1,0.4,0.1,0.6
	C19.3,4.4,19,7,18.7,9.7c-0.2,2.1-0.4,4.2,0.4,6c-1.8-0.7-2.8-2.1-3.9-3.6c-1.5-2.1-3-4.2-6.4-4.4c-0.2,0-0.4,0.1-0.5,0.4
	c0,0.2,0.1,0.4,0.3,0.5c2.4,0.8,3.1,3.2,3.9,5.8c0.6,2,1.2,4.1,2.6,5.4c-1.9,0-3.4-0.9-4.9-1.9c-2.1-1.3-4.4-2.7-7.6-1.6
	c-0.2,0.1-0.3,0.3-0.3,0.5s0.2,0.4,0.5,0.3c2.5-0.2,4.1,1.8,5.8,3.9c1.3,1.6,2.7,3.3,4.5,4c-1.7,0.8-3.5,0.5-5.3,0.2
	c-2.5-0.4-5.1-0.8-7.6,1.5C0,26.7,0,27,0.1,27.1c0.1,0.2,0.4,0.2,0.6,0.1c2.2-1.1,4.5,0.1,6.9,1.4c1.8,1,3.6,2,5.4,2
	c0.1,0,0.2,0,0.2,0c-1.3,1.4-3,1.8-4.8,2.2c-2.5,0.6-5,1.2-6.5,4.3c-0.1,0.2,0,0.4,0.2,0.6c0.1,0,0.2,0.1,0.2,0.1
	c0.1,0,0.3-0.1,0.3-0.2c1.6-1.9,4.2-1.6,6.9-1.3c2.1,0.2,4.2,0.4,6-0.4c-0.7,1.8-2.1,2.8-3.6,3.9c-2,1.5-4.2,3-4.4,6.5
	c0,0.2,0.1,0.4,0.4,0.5H8c0.2,0,0.4-0.1,0.4-0.3c0.8-2.4,3.2-3.1,5.8-3.9c2-0.6,4.1-1.2,5.4-2.6c0,1.9-0.9,3.4-1.9,5
	c-1.3,2.1-2.7,4.4-1.6,7.6c0.1,0.2,0.2,0.3,0.4,0.3h0.1c0.2,0,0.4-0.2,0.3-0.5c-0.2-2.5,1.8-4.1,3.9-5.8c1.6-1.3,3.3-2.7,4-4.5
	c0.8,1.7,0.5,3.5,0.2,5.3c-0.4,2.5-0.8,5.1,1.5,7.7c0.1,0.1,0.2,0.1,0.3,0.1c0.1,0,0.2,0,0.2-0.1c0.2-0.1,0.2-0.4,0.1-0.6
	c-1.1-2.2,0.1-4.5,1.4-6.9c1-1.8,2-3.7,1.9-5.7c1.4,1.3,1.8,3,2.2,4.8c0.6,2.5,1.2,5,4.3,6.5c0.1,0,0.1,0,0.2,0
	c0.1,0,0.3-0.1,0.4-0.2c0.1-0.2,0.1-0.4-0.1-0.6c-1.9-1.6-1.6-4.2-1.3-6.9c0.2-2.1,0.4-4.2-0.4-6c1.8,0.7,2.8,2.1,3.9,3.6
	c1.5,2.1,3,4.2,6.4,4.4l0,0c0.2,0,0.4-0.2,0.4-0.4s-0.1-0.4-0.3-0.5c-2.4-0.8-3.1-3.2-3.9-5.9c-0.6-2-1.2-4.1-2.6-5.4
	c1.9,0,3.4,0.9,4.9,1.9c1.6,1,3.2,2,5.3,2c0.7,0,1.5-0.1,2.4-0.4c0.2-0.1,0.3-0.3,0.3-0.5S52.3,37.9,52,38c-2.5,0.2-4.1-1.8-5.8-3.9
	c-1.3-1.6-2.7-3.3-4.5-4C43.5,29.3,45.3,29.6,47.1,29.9z"/>
<path class="st1" d="M79.4,11.5c-6.1,0-11.9,4.5-11.9,12c0,7.6,5.5,12,12.6,12c3.1,0,6.4-1,9-2.7l-2.1-4c-2,1-3.8,1.6-5.9,1.6
	c-3.7,0-6.1-1.5-6.8-4.8h15.6c0.1-0.6,0.3-1.8,0.3-3C90.2,16.3,86.5,11.5,79.4,11.5z M79.6,16.7c2.6,0,4.2,1.5,4.5,4.3h-9.8
	C75.1,18.1,77,16.7,79.6,16.7z"/>
<path class="st1" d="M108.9,11.5c-2.4,0-5,1.2-6.8,2.9h-0.2l-0.5-2.3h-5.5v31.4h6.8v-6.7l-0.3-3.7h0.2c1.6,1.6,3.6,2.5,5.6,2.5
	c5.1,0,9.9-4.5,9.9-12.4C118.1,16.1,114.6,11.5,108.9,11.5z M106.6,30c-1.2,0-2.6-0.4-3.9-1.5v-9.2c1.4-1.5,2.8-2.1,4.2-2.1
	c2.9,0,4.2,2,4.2,6.1C111.1,28,109.1,30,106.6,30z"/>
<path class="st1" d="M134.6,11.5c-6.1,0-11.9,4.5-11.9,12c0,7.6,5.5,12,12.6,12c3.1,0,6.4-1,9-2.7l-2.2-4.1c-2,1-3.8,1.6-5.9,1.6
	c-3.7,0-6.1-1.5-6.8-4.8H145c0.1-0.6,0.3-1.8,0.3-3C145.4,16.3,141.7,11.5,134.6,11.5z M134.8,16.7c2.6,0,4.2,1.5,4.5,4.3h-9.8
	C130.3,18.1,132.2,16.7,134.8,16.7z"/>
<path class="st1" d="M170.2,27.9c-1.6,1.1-3.6,2.2-6,2.2c-3.7,0-6.4-2.5-6.4-6.5s2.7-6.5,6.6-6.5c1.7,0,3.3,0.6,5.1,1.8l3.1-4.2
	c-1.9-1.8-4.9-3.1-8.5-3.1c-7,0-13.2,4.4-13.2,12s5.5,12,12.7,12c3.1,0,6.6-1.1,9.4-3.4L170.2,27.9z"/>
<path class="st1" d="M178.6,16.3c0,1-0.8,1.9-1.9,1.9c-1.1,0-1.9-0.9-1.9-1.9s0.8-1.9,1.9-1.9S178.6,15.3,178.6,16.3z M178.3,16.3
	c0-0.9-0.7-1.6-1.6-1.6c-0.9,0-1.6,0.7-1.6,1.6c0,0.9,0.7,1.6,1.6,1.6S178.3,17.2,178.3,16.3z M177.2,16.6l0.4,0.6h-0.4l-0.4-0.6
	h-0.1h-0.4v0.6H176v-1.9h0.8c0.5,0,0.8,0.2,0.8,0.6C177.6,16.3,177.4,16.5,177.2,16.6z M176.8,16.4c0.3,0,0.5-0.1,0.5-0.4
	c0-0.3-0.2-0.4-0.5-0.4h-0.4v0.8H176.8L176.8,16.4z"/>
</svg>
