<svg width="1570" height="2577" viewBox="0 0 1570 2577" fill="none" xmlns="http://www.w3.org/2000/svg">
<g clip-path="url(#clip0_450_142)">
<path d="M-938.604 1316.09C-1069.42 1294.55 -1204.75 1272.27 -1340.53 1393.32C-1349.28 1401.06 -1350.84 1414.13 -1344.21 1423.7C-1337.59 1433.28 -1324.88 1436.5 -1314.57 1431.25C-1197.84 1371.41 -1079.09 1435.95 -953.426 1504.16C-856.488 1556.82 -757.064 1610.77 -655.708 1606.16C-724.107 1678.06 -814.325 1699.24 -908.501 1721.24C-1037.66 1751.43 -1171.14 1782.55 -1250.31 1946.41C-1255.38 1956.91 -1251.88 1969.52 -1242.12 1975.87C-1232.36 1982.22 -1219.38 1980.38 -1211.83 1971.45C-1126.86 1871.48 -992.458 1885.65 -850.228 1900.57C-740.494 1912.08 -627.998 1923.86 -536.123 1880.87C-571.842 1973.48 -647.054 2027.52 -725.672 2083.95C-833.381 2161.19 -944.864 2241.09 -955.267 2422.82C-955.911 2434.42 -947.81 2444.82 -936.395 2446.94C-924.979 2449.05 -913.656 2442.33 -910.066 2431.29C-869.836 2306.45 -740.31 2268.07 -603.142 2227.47C-497.367 2196.17 -388.922 2163.95 -320.43 2089.01C-317.944 2188.25 -366.735 2266.96 -417.828 2349.17C-487.793 2461.76 -560.151 2578.21 -500.313 2750.09C-496.446 2761.13 -485.031 2767.48 -473.616 2765.09C-462.2 2762.7 -454.375 2752.2 -455.296 2740.51C-465.883 2609.79 -360.844 2524.73 -249.729 2434.78C-164.022 2365.37 -76.1061 2294.12 -41.584 2198.75C-1.26234 2289.52 -16.2679 2380.93 -32.0099 2476.3C-53.5517 2607.12 -75.8299 2742.44 45.2273 2878.23C52.9602 2886.98 66.0326 2888.54 75.6067 2881.91C85.1808 2875.29 88.4028 2862.58 83.1554 2852.27C23.3173 2735.54 87.8504 2616.78 156.066 2491.12C208.724 2394.19 262.67 2294.76 258.067 2193.41C329.965 2261.81 351.138 2352.02 373.14 2446.2C403.336 2575.36 434.451 2708.84 598.316 2788.01C608.811 2793.08 621.423 2789.58 627.775 2779.82C634.127 2770.06 632.286 2757.08 623.356 2749.53C523.38 2664.56 537.557 2530.25 552.471 2387.93C563.978 2278.19 575.762 2165.7 532.77 2073.82C625.473 2109.45 679.512 2184.66 735.852 2263.28C813.089 2370.99 892.996 2482.47 1074.72 2492.87C1086.32 2493.52 1096.72 2485.42 1098.84 2474C1100.96 2462.59 1094.24 2451.26 1083.19 2447.67C958.358 2407.44 919.969 2277.92 879.371 2140.75C848.071 2034.97 815.851 1926.53 740.915 1858.04C840.154 1855.55 918.864 1904.34 1001.07 1955.44C1113.66 2025.4 1230.12 2097.76 1401.99 2037.92C1413.04 2034.05 1419.48 2022.64 1417.09 2011.22C1414.69 1999.81 1404.2 1991.98 1392.51 1992.9C1261.78 2003.49 1176.72 1898.54 1086.78 1787.34C1017.37 1701.63 946.206 1613.71 850.741 1579.1C941.511 1538.87 1032.83 1553.87 1128.3 1569.52C1259.11 1591.07 1394.44 1613.34 1530.23 1492.29C1538.97 1484.55 1540.54 1471.48 1533.91 1461.91C1527.28 1452.24 1514.58 1449.11 1504.27 1454.36C1387.54 1514.2 1268.78 1449.66 1143.12 1381.45C1050.05 1330.91 954.675 1279.08 857.461 1279.08C853.411 1279.08 849.36 1279.26 845.31 1279.45C913.709 1207.46 1003.93 1186.38 1098.1 1164.37C1227.26 1134.18 1360.75 1103.06 1439.92 939.199C1444.98 928.704 1441.48 916.092 1431.72 909.74C1427.86 907.163 1423.44 905.966 1419.11 905.966C1412.48 905.966 1405.95 908.82 1401.44 914.159C1316.47 1014.13 1182.15 999.958 1039.83 985.044C930.096 973.537 817.6 961.753 725.725 1004.74C761.444 912.134 836.656 858.095 915.274 801.663C1022.98 724.426 1134.47 644.519 1144.87 462.795C1145.51 451.196 1137.41 440.793 1126 438.676C1124.52 438.4 1123.14 438.307 1121.76 438.307C1111.91 438.307 1102.89 444.66 1099.76 454.326C1059.53 579.157 930.004 617.546 792.836 658.144C687.061 689.444 578.616 721.664 510.124 796.6C507.638 697.361 556.429 618.65 607.522 536.442C677.487 423.854 749.845 307.4 690.007 135.526C686.693 126.044 677.855 119.969 668.189 119.969C666.624 119.969 664.967 120.153 663.402 120.429C651.986 122.822 644.162 133.317 645.082 145.008C655.669 275.732 550.722 360.794 439.515 450.735C353.808 520.148 265.892 591.401 231.37 686.774C191.048 596.004 206.054 504.59 221.796 409.217C243.338 278.401 265.616 143.075 144.559 7.28845C140.048 2.22522 133.696 -0.444393 127.252 -0.444393C122.741 -0.444394 118.138 0.844338 114.179 3.6061C104.605 10.2343 101.383 22.9384 106.631 33.249C166.469 149.979 101.936 268.735 33.7202 394.395C-18.9374 491.333 -72.8839 590.757 -68.2809 692.113C-140.179 623.714 -161.352 533.496 -183.354 439.32C-213.55 310.162 -244.665 176.676 -408.53 97.5059C-411.752 95.9409 -415.25 95.2045 -418.564 95.2045C-426.205 95.2045 -433.57 98.979 -437.989 105.699C-444.341 115.458 -442.5 128.438 -433.57 135.987C-333.594 220.957 -347.771 355.27 -362.685 497.593C-374.192 607.327 -385.976 719.823 -342.984 811.698C-435.595 775.979 -489.634 700.767 -546.066 622.149C-623.303 514.44 -703.21 402.957 -884.934 392.554C-885.394 392.554 -885.854 392.554 -886.315 392.554C-897.362 392.554 -907.028 400.471 -909.053 411.426C-911.171 422.841 -904.45 434.165 -893.403 437.755C-768.572 477.985 -730.183 607.511 -689.585 744.679C-658.285 850.454 -626.065 958.899 -551.129 1027.39C-650.368 1029.88 -729.078 981.086 -811.287 929.993C-894.508 878.256 -979.846 825.23 -1088.11 825.23C-1126.31 825.23 -1167.37 831.858 -1212.2 847.416C-1223.25 851.283 -1229.69 862.698 -1227.3 874.113C-1224.91 885.529 -1214.32 893.353 -1202.72 892.433C-1072 881.846 -986.935 986.885 -896.993 1098C-827.581 1183.71 -756.42 1271.62 -660.955 1306.14C-751.817 1346.83 -843.231 1331.83 -938.604 1316.09Z" fill="#262625"/>
<path d="M383.451 2571.49C368.814 2533.56 361.91 2493.61 356.018 2453.47C345.983 2385.17 336.317 2312.62 288.263 2259.14C284.58 2255.09 277.492 2260.43 280.622 2265.03C327.848 2333.52 330.702 2413.43 345.339 2492.78C357.675 2559.8 386.765 2633.91 439.147 2679.85C440.896 2681.41 443.75 2679.38 442.461 2677.27C421.103 2642.38 398.365 2610.16 383.451 2571.49Z" fill="#262625"/>
<path d="M283.199 2289.42C283.291 2285.37 280.713 2283.16 277.675 2282.52C277.583 2281.88 277.399 2281.14 277.307 2280.49C276.663 2277.73 272.244 2278.29 272.336 2281.14C272.336 2281.88 272.428 2282.52 272.52 2283.16C270.311 2284.27 268.561 2286.2 268.469 2289.33C262.854 2461.39 50.9346 2569.01 88.5866 2752.39C89.0469 2754.41 92.3611 2754.51 92.7293 2752.39C100.186 2710.5 102.58 2669.26 116.665 2628.75C132.775 2582.45 159.38 2541.67 187.642 2501.99C233.579 2437.64 281.174 2371.54 283.199 2289.42Z" fill="#262625"/>
<path d="M289.551 2368.5C292.405 2357.27 294.338 2345.95 296.64 2334.63C297.284 2331.5 292.589 2330.21 291.853 2333.34C289.091 2344.57 286.053 2355.61 283.843 2367.03C283.199 2370.62 288.63 2372.19 289.551 2368.5Z" fill="#262625"/>
<path d="M273.993 2404.22C270.771 2412.87 268.009 2421.44 266.352 2430.46C265.523 2434.69 271.599 2436.53 272.888 2432.3C275.65 2423.28 277.215 2414.16 278.411 2404.77C278.78 2402.2 274.821 2402.01 273.993 2404.22Z" fill="#262625"/>
<path d="M130.197 2720.17C139.863 2668.06 158.735 2622.03 186.721 2576.92C212.129 2535.87 242.048 2497.11 262.946 2453.38C264.235 2450.71 260.736 2448.78 258.987 2451.08C200.99 2528.68 125.778 2617.8 118.137 2718.51C117.585 2725.41 129 2726.98 130.197 2720.17Z" fill="#262625"/>
<path d="M410.884 2709.58C412.633 2711.15 415.763 2709.12 414.29 2706.91C382.99 2660.24 352.427 2616.88 338.157 2561.46C324.257 2507.24 320.39 2449.79 319.377 2394C319.285 2389.86 312.749 2389.77 312.841 2394C314.867 2509.91 319.377 2625.53 410.884 2709.58Z" fill="#262625"/>
<path d="M287.066 2470.5C288.631 2465.99 290.564 2461.57 291.761 2456.97C292.957 2452.28 293.418 2447.58 294.338 2442.89C294.799 2440.4 291.024 2438.28 289.919 2441.04C288.078 2445.37 285.869 2449.51 284.212 2453.93C282.463 2458.72 281.45 2463.78 280.161 2468.75C278.872 2473.17 285.501 2474.83 287.066 2470.5Z" fill="#262625"/>
<path d="M272.98 2492.41C230.357 2537.71 192.244 2599.48 176.779 2660.05C175.582 2664.56 182.302 2667.79 184.511 2663.27C213.602 2605.09 241.036 2549.86 276.478 2494.99C277.859 2492.97 274.729 2490.57 272.98 2492.41Z" fill="#262625"/>
<path d="M302.071 2586.04C302.991 2587.97 306.398 2587.05 306.214 2584.93C304.464 2560.81 294.706 2539.82 299.309 2515.43C300.138 2511.01 294.43 2506.31 290.932 2510.55C283.291 2519.94 284.027 2531.45 286.789 2542.86C290.379 2557.41 295.351 2572.51 302.071 2586.04Z" fill="#262625"/>
<path d="M266.628 2546.91C246.651 2580.97 232.197 2618.72 217.192 2655.17C203.291 2688.87 188.562 2725.14 192.152 2762.24C192.704 2768.04 200.713 2768.13 201.266 2762.24C208.354 2685.74 251.438 2621.94 270.77 2548.75C271.415 2546.18 267.916 2544.7 266.628 2546.91Z" fill="#262625"/>
<path d="M977.965 2499.04C980.451 2500.15 982.568 2496.83 980.175 2495.27C975.94 2492.51 972.258 2489.74 967.747 2487.53C964.157 2485.88 961.119 2490.85 964.617 2492.87C968.944 2495.54 973.27 2497.11 977.965 2499.04Z" fill="#262625"/>
<path d="M931.292 2480.72C926.045 2479.89 920.981 2477.41 916.839 2473.91C914.261 2471.7 910.487 2475.29 913.064 2477.68C918.036 2482.47 923.927 2484.68 930.74 2484.87C933.041 2484.96 933.686 2481.09 931.292 2480.72Z" fill="#262625"/>
<path d="M794.493 2376.24C764.758 2345.3 742.387 2309.22 720.477 2272.49C686.324 2215.22 649.316 2152.9 586.44 2123.35C580.824 2120.68 576.221 2128.32 581.561 2131.73C708.878 2214.4 730.512 2402.47 886.551 2454.12C889.037 2454.95 889.958 2451.54 888.208 2450.25C855.712 2426.32 822.755 2405.6 794.493 2376.24Z" fill="#262625"/>
<path d="M589.938 2654.99C591.319 2657.01 594.449 2655.82 593.897 2653.33C583.955 2608.22 569.594 2566.52 568.397 2519.57C567.108 2472.53 576.498 2426.59 587.085 2381.02C604.392 2306.09 621.791 2228.21 593.069 2153.82C591.688 2150.14 588.282 2148.67 585.152 2148.85C584.783 2148.3 584.507 2147.75 584.047 2147.19C582.114 2144.52 578.339 2146.73 579.628 2149.77C579.812 2150.14 579.996 2150.51 580.18 2150.88C578.523 2152.44 577.695 2154.83 578.799 2157.78C639.558 2318.79 484.992 2499.96 589.938 2654.99Z" fill="#262625"/>
<path d="M622.435 2189.08C621.791 2185.95 617.188 2187.33 617.648 2190.37C619.397 2201.88 620.87 2213.2 623.172 2224.61C623.908 2228.39 629.432 2226.73 628.879 2223.05C627.222 2211.63 624.645 2200.4 622.435 2189.08Z" fill="#262625"/>
<path d="M637.993 2289.33C637.073 2279.85 635.139 2270.83 632.654 2261.62C632.009 2259.23 628.051 2259.6 628.143 2262.27C628.511 2271.75 629.248 2280.95 631.273 2290.25C632.101 2293.94 638.361 2293.2 637.993 2289.33Z" fill="#262625"/>
<path d="M616.175 2608.5C604.667 2554.65 605.496 2503.83 614.61 2449.61C622.342 2403.76 634.218 2358.38 636.796 2311.79C636.98 2309.22 632.929 2308.76 632.285 2311.15C608.718 2404.59 572.815 2516.16 604.207 2611.72C606.785 2619.36 617.832 2616.23 616.175 2608.5Z" fill="#262625"/>
<path d="M985.146 2530.16C969.496 2523.9 952.649 2517.91 936.171 2514.14C931.844 2513.13 929.082 2519.11 933.133 2521.41C948.322 2530.07 967.194 2534.39 984.594 2534.3C987.171 2534.3 987.263 2530.99 985.146 2530.16Z" fill="#262625"/>
<path d="M898.98 2507.51C902.662 2509.08 906.437 2509.35 910.211 2510.37C912.881 2511.1 914.078 2506.87 911.408 2506.22C908.002 2505.3 905.148 2503.09 902.202 2501.16C899.44 2499.32 896.494 2497.75 893.825 2495.73C890.695 2493.43 887.012 2498.4 889.774 2500.98C892.536 2503.65 895.39 2506.04 898.98 2507.51Z" fill="#262625"/>
<path d="M871.823 2492.32C874.216 2493.24 875.413 2489.65 873.48 2488.36C821.927 2454.12 774.701 2422.63 738.798 2370.9C709.615 2328.83 686.693 2281.97 666.071 2235.29C664.414 2231.43 658.799 2234.74 660.456 2238.61C706.025 2345.03 755.184 2449.7 871.823 2492.32Z" fill="#262625"/>
<path d="M664.69 2303.79C664.046 2299.09 662.665 2294.58 661.652 2289.98C661.1 2287.21 656.957 2287.95 656.865 2290.62C656.773 2295.78 656.221 2300.84 656.589 2305.99C656.957 2310.69 657.878 2315.38 658.522 2320.08C659.074 2324.13 665.795 2323.12 665.611 2319.16C665.426 2314 665.426 2308.85 664.69 2303.79Z" fill="#262625"/>
<path d="M636.429 2536.69C637.073 2541.67 644.438 2540.01 644.714 2535.59C648.949 2470.87 653.276 2409.84 665.243 2345.86C665.796 2343 661.929 2341.99 660.916 2344.66C639.098 2402.93 628.051 2474.65 636.429 2536.69Z" fill="#262625"/>
<path d="M642.965 2572.04C642.229 2569.74 638.546 2570.02 638.638 2572.6C639.099 2621.11 658.799 2670.27 681.814 2712.34C685.404 2718.88 695.162 2713.08 691.848 2706.45C669.57 2662.72 658.063 2618.26 642.965 2572.04Z" fill="#262625"/>
<path d="M855.436 2507.42C831.408 2493.15 809.775 2476.03 787.404 2459.27C782.985 2455.96 777.554 2463.14 781.512 2466.91C818.98 2502.45 875.504 2542.13 927.334 2550.23C929.819 2550.59 931.384 2547.56 929.083 2546.08C906.068 2531.08 879.279 2521.5 855.436 2507.42Z" fill="#262625"/>
<path d="M763.193 2454.76C765.034 2455.96 767.428 2453.56 766.231 2451.72C759.787 2441.97 750.765 2430.64 739.442 2426.68C736.312 2425.58 733.09 2429.72 735.023 2432.48C738.521 2437.36 743.216 2440.58 747.911 2444.08C752.882 2447.86 757.854 2451.36 763.193 2454.76Z" fill="#262625"/>
<path d="M694.057 2354.69C692.86 2349.54 685.863 2350.27 684.39 2354.69C680.524 2365.92 687.06 2377.43 693.78 2386.36C702.71 2398.05 712.376 2409.93 723.515 2419.5C725.449 2421.16 728.118 2419.13 727.014 2416.83C721.766 2406.15 714.586 2396.95 707.773 2387.19C700.409 2376.51 696.818 2367.21 694.057 2354.69Z" fill="#262625"/>
<path d="M698.2 2621.57C675.829 2547.83 690.651 2472.81 680.524 2397.41C680.248 2395.2 676.474 2394 676.014 2396.76C670.122 2439.2 671.134 2483.39 671.687 2526.2C672.147 2559.43 673.252 2595.24 689.73 2624.98C692.4 2629.58 699.673 2626.54 698.2 2621.57Z" fill="#262625"/>
<path d="M722.963 2544.15C720.201 2509.63 720.201 2474.55 715.69 2440.31C715.138 2436.07 709.154 2435.8 708.878 2440.31C706.485 2480.54 711.18 2522.42 715.138 2562.47C717.992 2591.1 717.624 2625.71 733.458 2650.75C734.747 2652.78 738.613 2651.49 737.6 2649.01C724.988 2616.6 725.725 2578.49 722.963 2544.15Z" fill="#262625"/>
<path d="M759.972 2487.53C764.667 2489.65 769.454 2484.31 765.587 2480.26C758.591 2472.9 749.017 2468.39 741.744 2461.21C739.903 2459.36 736.589 2461.76 738.062 2464.06C743.953 2472.71 749.937 2482.93 759.972 2487.53Z" fill="#262625"/>
<path d="M903.95 2568.36C883.513 2555.93 861.327 2545.99 840.614 2533.93C819.901 2521.78 800.292 2507.6 778.75 2497.02C776.357 2495.82 773.963 2498.77 775.897 2500.79C807.657 2533.84 857.092 2562.47 900.084 2577.75C905.607 2579.78 908.829 2571.31 903.95 2568.36Z" fill="#262625"/>
<path d="M862.249 2578.67C819.165 2558.42 778.567 2527.95 741.56 2498.4C736.773 2494.53 729.96 2500.79 734.655 2505.3C771.755 2541.3 813.642 2563.12 860.684 2582.63C862.893 2583.55 864.458 2579.69 862.249 2578.67Z" fill="#262625"/>
<path d="M754.17 2575.27C754.262 2561.46 750.58 2548.02 750.948 2534.12C751.04 2531.54 746.898 2530.89 746.345 2533.47C743.768 2547 741.098 2563.11 746.437 2576.37C748.002 2580.24 754.17 2580.05 754.17 2575.27Z" fill="#262625"/>
<path d="M784.366 2573.43C783.722 2571.03 779.671 2571.4 779.855 2574.07C781.052 2586.22 782.065 2598.01 784.55 2610.06C786.667 2620.47 787.772 2633.17 795.413 2640.9C797.346 2642.84 801.673 2642.19 802.133 2639.16C803.606 2628.84 798.359 2619.27 795.321 2609.51C791.639 2597.45 787.496 2585.49 784.366 2573.43Z" fill="#262625"/>
<path d="M1307.26 2080.91C1309.93 2080.82 1312.51 2080.64 1315.18 2080.64C1317.57 2080.64 1318.22 2076.86 1315.73 2076.4C1310.57 2075.39 1305.88 2074.19 1300.54 2073.91C1297.13 2073.73 1296.21 2079.53 1299.71 2079.99C1302.29 2080.45 1304.77 2081 1307.26 2080.91Z" fill="#262625"/>
<path d="M1247.05 2085.97C1253.22 2088.37 1259.39 2088.18 1265.56 2085.79C1268.04 2084.87 1267.12 2081.1 1264.45 2081.74C1259.2 2082.94 1253.59 2082.48 1248.53 2080.82C1245.12 2079.71 1243.92 2084.69 1247.05 2085.97Z" fill="#262625"/>
<path d="M1213.54 2069.96C1173.78 2060.29 1134.83 2053.57 1097 2036.82C1059.81 2020.34 1026.67 1996.95 994.169 1972.83C938.749 1931.59 880.568 1887.13 808.763 1883.26C803.331 1882.99 802.042 1891.82 807.474 1892.84C889.314 1907.84 947.771 1962.34 1014.24 2008.09C1070.39 2046.76 1143.3 2078.61 1212.99 2074.1C1215.29 2074.01 1216.03 2070.6 1213.54 2069.96Z" fill="#262625"/>
<path d="M1089.26 2431.38C1091.47 2431.38 1092.49 2428.16 1090.46 2427.05C1086.23 2424.75 1082.08 2423 1078.31 2419.96C1074.63 2417.02 1071.5 2413.43 1067.82 2410.39C1064.32 2407.54 1059.81 2410.94 1061.65 2415.18C1065.88 2424.75 1079.05 2431.47 1089.26 2431.38Z" fill="#262625"/>
<path d="M1032.19 2397.32C1034.03 2398.7 1035.96 2399.8 1038.08 2400.63C1039.19 2401.09 1040.01 2400.91 1041.12 2401.09C1042.13 2401.28 1043.14 2401.74 1044.16 2402.01C1046.73 2402.93 1047.84 2398.88 1045.26 2397.96C1042.5 2396.95 1039.92 2393.27 1038.17 2390.78C1036.15 2387.84 1034.03 2385.07 1031.73 2382.31C1029.7 2379.92 1025.65 2381.94 1025.74 2384.8C1025.84 2389.95 1028.14 2394.19 1032.19 2397.32Z" fill="#262625"/>
<path d="M816.126 1918.7C882.316 1989.13 885.446 2087.26 904.134 2176.93C918.955 2248.27 952.557 2331.86 1016.35 2373.29C1018.1 2374.49 1020.59 2372.09 1019.3 2370.34C994.536 2334.53 966.366 2303.05 947.586 2263.28C926.964 2219.92 917.298 2173.06 909.381 2126.02C896.309 2048.14 883.329 1967.5 826.62 1908.21C823.859 1905.26 820.36 1905.45 817.783 1907.2C817.231 1906.83 816.678 1906.46 816.126 1906.09C813.64 1904.62 810.971 1908.03 813.088 1910.05C813.548 1910.51 814.101 1910.88 814.561 1911.34C813.64 1913.73 813.916 1916.4 816.126 1918.7Z" fill="#262625"/>
<path d="M863.721 1933.06C869.705 1943.01 875.413 1952.95 881.857 1962.52C883.974 1965.65 888.945 1962.8 886.92 1959.58C880.936 1949.64 874.4 1940.25 867.956 1930.58C866.299 1928 862.064 1930.4 863.721 1933.06Z" fill="#262625"/>
<path d="M905.239 1993.73C903.49 1991.43 900.084 1993.36 901.281 1996.03C905.147 2004.41 909.198 2012.42 914.445 2020.06C916.931 2023.65 922.362 2020.52 920.337 2016.65C916.01 2008.37 910.855 2001 905.239 1993.73Z" fill="#262625"/>
<path d="M1022.98 2320.91C995.273 2280.4 976.401 2238.33 964.341 2190.55C951.545 2140.01 945.469 2087.72 928.254 2038.38C927.242 2035.53 923.467 2036.72 923.835 2039.58C937.92 2135.04 947.126 2252.05 1013.32 2328.27C1017.83 2333.61 1026.94 2326.71 1022.98 2320.91Z" fill="#262625"/>
<path d="M1056.95 2370.25C1061.37 2375.04 1065.15 2379.27 1070.85 2382.5C1073.61 2384.06 1077.57 2381.48 1076.47 2378.17C1074.26 2371.72 1070.67 2367.49 1065.88 2362.61C1063.76 2360.49 1061.55 2358.74 1059.16 2357C1055.94 2354.69 1052.99 2353.77 1049.5 2352.02C1047.56 2351.1 1045.08 2353.13 1046.37 2355.15C1047.93 2357.46 1048.76 2360.03 1050.51 2362.33C1052.53 2365 1054.65 2367.77 1056.95 2370.25Z" fill="#262625"/>
<path d="M1110.72 2403.02C1104.27 2398.61 1097 2394.65 1091.66 2388.76C1090 2387.01 1087.24 2388.85 1087.79 2391.06C1090.19 2400.63 1095.16 2409.38 1104.55 2413.52C1111.64 2416.74 1117.34 2407.44 1110.72 2403.02Z" fill="#262625"/>
<path d="M1333.68 2106.6C1316.56 2106.69 1298.42 2107.79 1281.48 2110.65C1276.7 2111.47 1278.54 2118.01 1282.5 2118.47C1299.34 2120.5 1318.58 2117.27 1334.23 2110.74C1336.35 2109.91 1336.35 2106.6 1333.68 2106.6Z" fill="#262625"/>
<path d="M1234.53 2116.45C1237.94 2117.73 1241.34 2118.75 1245.03 2118.84C1248.99 2118.84 1252.48 2117.64 1256.35 2117.18C1259.11 2116.81 1259.11 2112.49 1256.35 2112.86C1252.85 2113.32 1249.35 2112.4 1245.95 2111.75C1242.73 2111.11 1239.5 2110.74 1236.28 2110C1232.05 2108.9 1230.57 2114.88 1234.53 2116.45Z" fill="#262625"/>
<path d="M1214 2115.07C1216.31 2114.97 1217.13 2111.29 1214.56 2110.83C1158.49 2099.78 1105.28 2090.3 1055.39 2060.38C1008.16 2032.12 965.722 1994.65 926.137 1956.63C923.099 1953.69 918.496 1958.29 921.534 1961.23C1004.48 2041.88 1090.09 2120.31 1214 2115.07Z" fill="#262625"/>
<path d="M942.892 2008.83C941.511 2006.71 937.369 2008 938.474 2010.67C940.223 2015 941.604 2019.6 943.537 2023.83C945.654 2028.44 948.508 2032.67 951.086 2037.09C953.479 2041.14 959.279 2037.55 957.346 2033.41C955.32 2029.08 953.479 2024.66 951.086 2020.52C948.6 2016.47 945.562 2012.88 942.892 2008.83Z" fill="#262625"/>
<path d="M962.961 2059C964.987 2121.51 981.833 2191.38 1013.5 2245.7C1015.9 2249.75 1022.8 2247.08 1021.23 2242.47C1000.25 2180.8 980.913 2122.43 967.288 2058.45C966.736 2055.96 962.869 2056.52 962.961 2059Z" fill="#262625"/>
<path d="M1033.11 2276.17C1031.73 2274.51 1028.51 2276.26 1029.43 2278.38C1047.93 2322.57 1085.12 2361.32 1122.31 2390.69C1128.02 2395.2 1136.22 2387.47 1130.51 2382.5C1093.22 2350.27 1065.05 2313.18 1033.11 2276.17Z" fill="#262625"/>
<path d="M1288.02 2142.87C1264.27 2139.18 1239.96 2139.64 1216.03 2136.79C1184.64 2133.02 1154.81 2125.1 1124.34 2117C1118.17 2115.34 1115.96 2124.27 1121.76 2126.39C1171.01 2144.62 1235.82 2158.06 1288.11 2147.29C1290.14 2146.83 1290.32 2143.24 1288.02 2142.87Z" fill="#262625"/>
<path d="M1082.55 2118.29C1088.25 2119.85 1093.96 2121.23 1099.85 2121.97C1102.34 2122.25 1102.52 2118.93 1100.96 2117.83C1092.03 2111.2 1078.59 2104.66 1067.36 2105.03C1063.49 2105.21 1062.02 2110.28 1065.33 2112.4C1070.67 2115.62 1076.56 2116.72 1082.55 2118.29Z" fill="#262625"/>
<path d="M1051.8 2100.89C1041.85 2092.14 1030.35 2085.79 1019.3 2078.61C1009.17 2071.98 1004.2 2064.62 996.93 2055.5C994.076 2051.91 988.552 2055.13 988.368 2059.09C988 2070.05 998.31 2078.61 1006.87 2083.95C1020.04 2092.14 1034.86 2099.78 1049.59 2104.66C1051.7 2105.31 1053.45 2102.36 1051.8 2100.89Z" fill="#262625"/>
<path d="M1096.54 2306.92C1101.14 2310.51 1106.76 2305.07 1102.98 2300.47C1054.56 2240.73 1039.28 2165.97 1001.17 2100.34C999.876 2098.13 996.378 2099.6 997.022 2102.09C1007.79 2143.42 1025.65 2183.65 1042.5 2222.87C1055.39 2252.97 1069.93 2286.39 1096.54 2306.92Z" fill="#262625"/>
<path d="M1132.53 2333.24C1127.01 2328 1121.85 2322.57 1115.32 2318.61C1113.57 2317.59 1111.27 2319.25 1111.91 2321.28C1114.4 2329.38 1119.74 2335.73 1125.63 2341.81C1131.43 2347.79 1137.87 2354.88 1145.6 2358.1C1151.13 2360.4 1153.52 2352.85 1150.76 2349.26C1145.97 2343.09 1138.24 2338.58 1132.53 2333.24Z" fill="#262625"/>
<path d="M1093.87 2234.93C1108.32 2262.27 1121.39 2296.14 1147.35 2314.46C1149.56 2316.03 1151.86 2312.72 1150.12 2310.87C1125.9 2285.74 1112.1 2250.02 1096.35 2219.28C1080.61 2188.53 1067.17 2156.12 1049.96 2126.3C1048.11 2123.07 1042.41 2125.19 1043.7 2128.97C1056.4 2165.51 1075.73 2200.77 1093.87 2234.93Z" fill="#262625"/>
<path d="M1112.1 2144.8C1102.52 2140.47 1091.66 2139.92 1081.99 2135.96C1079.41 2134.95 1078.13 2138.82 1080.24 2140.2C1089.17 2146.18 1098.56 2153.09 1109.79 2153.45C1114.12 2153.64 1116.33 2146.73 1112.1 2144.8Z" fill="#262625"/>
<path d="M1273.75 2173.15C1226.52 2166.43 1177.27 2158.33 1129.77 2155.02C1127.47 2154.83 1126.36 2158.52 1128.57 2159.44C1170.92 2177.39 1226.52 2184.94 1272.37 2183.19C1277.89 2183 1279.73 2174.07 1273.75 2173.15Z" fill="#262625"/>
<path d="M1238.22 2198.47C1190.25 2195.52 1141.65 2183.74 1095.71 2170.3C1089.54 2168.46 1087.33 2177.57 1093.13 2179.78C1141.37 2198.56 1187.22 2203.35 1238.22 2202.8C1240.98 2202.8 1240.98 2198.65 1238.22 2198.47Z" fill="#262625"/>
<path d="M1118.72 2200.13C1117.71 2197.37 1113.66 2198.38 1114.21 2201.32C1116.97 2214.86 1120.93 2230.78 1130.87 2240.91C1133.45 2243.49 1138.98 2240.91 1137.41 2237.04C1132.26 2224.34 1123.69 2213.29 1118.72 2200.13Z" fill="#262625"/>
<path d="M1163.74 2279.85C1157.11 2272.49 1149.47 2263.74 1145.05 2254.9C1143.86 2252.42 1140.27 2254.63 1141.37 2257.02C1149.56 2274.51 1157.76 2296.6 1175.62 2306.92C1179.94 2309.4 1186.39 2304.06 1182.98 2299.55C1177.46 2292.28 1169.82 2286.66 1163.74 2279.85Z" fill="#262625"/>
<path d="M1164.66 2223.69C1162.91 2221.39 1159.32 2223.33 1160.7 2226C1166.87 2237.5 1172.76 2248.64 1180.22 2259.41C1185.56 2267.15 1191.63 2278.93 1201.02 2281.69C1204.25 2282.61 1206.36 2279.57 1206 2276.72C1204.71 2267.61 1194.58 2259.78 1188.78 2252.88C1180.68 2243.21 1172.21 2233.73 1164.66 2223.69Z" fill="#262625"/>
<path d="M1229.01 2251.86C1222.01 2247.72 1215.39 2242.93 1209.03 2237.87C1202.68 2232.81 1195.04 2227.38 1190.62 2220.56C1188.96 2218.08 1185.01 2220.38 1186.57 2222.96C1191.54 2230.6 1194.95 2238.88 1200.93 2245.97C1207.01 2253.15 1214.1 2258.86 1222.01 2263.92C1229.47 2268.8 1236.74 2256.47 1229.01 2251.86Z" fill="#262625"/>
<path d="M1232.88 2222.68C1227.72 2220.38 1220.45 2217.89 1216.4 2213.94C1214.28 2211.82 1210.97 2215.13 1213.08 2217.25C1215.57 2219.74 1217.32 2223.14 1219.71 2225.81C1221.92 2228.3 1224.5 2230.41 1227.26 2232.44C1232.69 2236.49 1238.68 2241.37 1245.76 2239.9C1250.55 2238.88 1250.92 2233.18 1248.43 2229.95C1244.84 2225.44 1237.85 2224.98 1232.88 2222.68Z" fill="#262625"/>
<path d="M1452.34 1570.35C1457.22 1569.16 1461.46 1567.13 1466.15 1565.2C1468.73 1564.19 1467.81 1560.41 1464.96 1561.06C1460.08 1562.07 1455.47 1562.71 1450.69 1564.37C1447.01 1565.75 1448.39 1571.37 1452.34 1570.35Z" fill="#262625"/>
<path d="M1405.12 1596.04C1412.02 1595.85 1417.73 1593.28 1422.7 1588.58C1424.45 1586.92 1422.15 1583.79 1420.12 1585.27C1415.8 1588.4 1410.46 1590.24 1405.12 1590.7C1401.71 1590.97 1401.62 1596.13 1405.12 1596.04Z" fill="#262625"/>
<path d="M1368.02 1594.2C1326.5 1600.92 1286.64 1609.29 1244.2 1607.91C1203.14 1606.53 1163.56 1597.05 1123.88 1587.11C1058.43 1570.63 989.658 1553.51 923.467 1576.34C917.576 1578.36 919.877 1587.02 926.045 1585.73C1010.92 1567.41 1088.53 1599.72 1170.92 1615.37C1234.99 1627.61 1309.75 1626.97 1369.58 1598.06C1372.07 1596.87 1370.23 1593.83 1368.02 1594.2Z" fill="#262625"/>
<path d="M937.46 1599.81C937.828 1600 938.196 1600.09 938.565 1600.18C938.473 1602.48 939.485 1604.69 942.431 1605.98C1030.16 1645.57 1070.67 1733.3 1121.76 1808.88C1163.1 1870 1226.16 1935.64 1302.01 1949.73C1304.41 1950.19 1305.79 1947.15 1303.67 1945.77C1264.27 1920.36 1223.85 1900.75 1189.42 1867.8C1156.38 1836.04 1131.15 1798.01 1107.03 1759.35C1066.25 1693.8 1023.26 1625.5 949.888 1593.18C946.298 1591.62 942.891 1592.91 940.774 1595.21C940.13 1595.12 939.485 1594.93 938.841 1594.84C935.619 1594.38 934.422 1598.62 937.46 1599.81Z" fill="#262625"/>
<path d="M1391.59 1975.69C1394.07 1974.77 1393.7 1971.36 1390.94 1971.09C1385.97 1970.63 1381.37 1970.44 1376.49 1968.97C1372.07 1967.68 1368.02 1965.56 1363.51 1964.27C1359.83 1963.26 1356.79 1968.14 1359.64 1970.81C1367.56 1978.17 1381.83 1979.55 1391.59 1975.69Z" fill="#262625"/>
<path d="M1329.45 1957.74C1326.41 1955.9 1323.46 1954.15 1320.42 1952.49C1317.2 1950.74 1314.16 1954.15 1315.64 1957.28C1317.66 1961.51 1320.98 1964.37 1325.39 1965.75C1327.33 1966.39 1329.35 1966.67 1331.29 1966.76C1333.96 1966.85 1336.07 1965.93 1338.74 1965.75C1341.41 1965.56 1341.51 1961.42 1338.74 1961.51C1335.71 1961.6 1332.02 1959.3 1329.45 1957.74Z" fill="#262625"/>
<path d="M993.064 1601.65C1002.45 1608.56 1011.48 1615.55 1021.14 1621.91C1024.36 1624.02 1027.13 1619.05 1024.09 1616.84C1014.79 1609.94 1005.12 1603.77 995.55 1597.33C992.88 1595.58 990.486 1599.81 993.064 1601.65Z" fill="#262625"/>
<path d="M1051.34 1645.01C1058.24 1651.46 1065.33 1657.44 1073.25 1662.6C1076.47 1664.71 1080.43 1659.74 1077.39 1657.26C1070.12 1651.18 1062.29 1646.21 1054.1 1641.52C1051.89 1640.23 1049.4 1643.26 1051.34 1645.01Z" fill="#262625"/>
<path d="M1088.9 1676.77C1137.78 1759.17 1191.91 1864.39 1281.48 1909.13C1288.57 1912.63 1294.37 1902.87 1287.65 1898.54C1241.81 1868.62 1206.27 1832.54 1174.69 1787.98C1147.72 1749.87 1123.88 1708.9 1092.49 1674.1C1090.74 1672.08 1087.61 1674.56 1088.9 1676.77Z" fill="#262625"/>
<path d="M1359.36 1930.95C1355.13 1925.79 1349.61 1923.4 1343.44 1920.91C1336.99 1918.24 1331.19 1917.97 1324.47 1917.51C1322.08 1917.32 1321.62 1920.55 1323.37 1921.74C1328.98 1925.52 1333.77 1929.29 1340.03 1932.14C1345.74 1934.72 1350.43 1937.02 1356.69 1937.58C1360.28 1937.76 1361.3 1933.25 1359.36 1930.95Z" fill="#262625"/>
<path d="M1405.76 1947.15C1405.76 1943.47 1402.91 1941.35 1399.59 1940.98C1392.6 1940.06 1384.5 1938.4 1378.15 1935.46C1376.3 1934.63 1373.45 1936.56 1374.92 1938.68C1377.68 1942.46 1380.72 1946.32 1384.77 1948.81C1389.28 1951.57 1394.44 1952.77 1399.59 1953.41C1402.91 1953.78 1405.67 1950.19 1405.76 1947.15Z" fill="#262625"/>
<path d="M1493.13 1582.14C1477.57 1588.95 1461.55 1596.41 1447.19 1605.43C1443.41 1607.82 1445.81 1613.9 1450.23 1612.7C1467.07 1608.1 1483.37 1597.69 1495.7 1585.45C1497.55 1583.61 1495.24 1581.22 1493.13 1582.14Z" fill="#262625"/>
<path d="M1405.12 1629C1409.08 1628.9 1412.76 1628.53 1416.44 1626.97C1420.12 1625.5 1422.89 1623.01 1426.29 1621.08C1428.69 1619.7 1426.57 1615.92 1424.08 1617.3C1421.04 1619.05 1417.27 1619.51 1413.86 1620.25C1410.64 1620.89 1407.51 1621.81 1404.2 1622.37C1400.52 1623.01 1401.44 1629.09 1405.12 1629Z" fill="#262625"/>
<path d="M1384.59 1631.48C1326.87 1643.08 1272.46 1654.59 1213.36 1644.92C1160.7 1636.27 1108.6 1618.87 1059.16 1599.17C1055.3 1597.6 1053.55 1603.96 1057.41 1605.43C1165.77 1647.78 1273.11 1687.91 1386.34 1635.35C1388.64 1634.33 1386.89 1631.02 1384.59 1631.48Z" fill="#262625"/>
<path d="M1113.66 1664.44C1116.97 1666.92 1121.02 1661.49 1118.08 1658.73C1114.4 1655.32 1110.71 1651.83 1106.76 1648.79C1102.89 1645.84 1098.65 1643.72 1094.7 1641.06C1092.39 1639.49 1089.82 1642.99 1091.75 1644.83C1095.34 1648.33 1098.38 1652.38 1102.24 1655.69C1105.83 1658.91 1109.79 1661.58 1113.66 1664.44Z" fill="#262625"/>
<path d="M1132.72 1680.18C1157.57 1736.15 1201.39 1797 1251.1 1833.27C1255.25 1836.31 1259.11 1830.05 1256.26 1826.65C1236.56 1803.45 1214 1783.01 1194.76 1759.26C1173.68 1733.21 1155.55 1705.4 1136.49 1677.88C1134.93 1675.48 1131.61 1677.51 1132.72 1680.18Z" fill="#262625"/>
<path d="M1410.46 1914.29C1363.78 1899 1324.2 1875.71 1280.84 1853.71C1278.63 1852.61 1276.24 1855.37 1278.17 1857.21C1312.6 1891.09 1361.57 1912.17 1407.42 1925.42C1414.6 1927.54 1417.55 1916.59 1410.46 1914.29Z" fill="#262625"/>
<path d="M1303.21 1671.8C1297.78 1672.54 1299.07 1681.56 1304.5 1681.38C1357.25 1679.54 1422.52 1667.75 1466.52 1637.19C1468.64 1635.72 1467.35 1632.4 1464.77 1633.05C1437.89 1639.21 1412.21 1650.91 1385.33 1657.81C1358.26 1664.71 1330.83 1668.03 1303.21 1671.8Z" fill="#262625"/>
<path d="M1282.96 1685.8C1285.07 1685.24 1285.07 1682.02 1282.96 1681.47C1271.63 1678.61 1257.09 1677.88 1246.22 1682.67C1243.28 1683.95 1243.92 1689.39 1247.15 1689.85C1258.28 1691.6 1272.09 1688.65 1282.96 1685.8Z" fill="#262625"/>
<path d="M1183.63 1686.16C1198.72 1688.47 1214.65 1689.85 1229.93 1688.83C1232.42 1688.65 1232.97 1685.24 1230.48 1684.51C1217.96 1680.36 1205.07 1678.98 1192.28 1676.5C1180.86 1674.29 1173.13 1669.87 1163.37 1663.98C1158.68 1661.12 1154.63 1666.56 1156.47 1670.88C1160.98 1680.92 1173.41 1684.6 1183.63 1686.16Z" fill="#262625"/>
<path d="M1354.95 1849.66C1286.91 1813.3 1244.02 1749.5 1183.44 1703.29C1181.69 1701.91 1179.02 1704.67 1180.31 1706.42C1206.18 1740.57 1238.12 1771.13 1268.78 1800.96C1292.62 1824.16 1318.67 1848.65 1351.36 1858.04C1356.33 1859.42 1359.55 1852.15 1354.95 1849.66Z" fill="#262625"/>
<path d="M1417.82 1876.45C1410.55 1872.86 1402.26 1871.39 1394.72 1868.53C1387.44 1865.77 1380.26 1862.27 1372.44 1861.44C1370.14 1861.17 1369.68 1864.02 1370.78 1865.4C1376.03 1872.12 1384.13 1875.9 1391.86 1879.21C1399.23 1882.34 1407.05 1885.93 1415.15 1886.39C1420.31 1886.58 1422.52 1878.75 1417.82 1876.45Z" fill="#262625"/>
<path d="M1402.17 1841.1C1368.75 1826.46 1340.58 1796.91 1312.97 1773.34C1287.93 1751.99 1264.45 1728.51 1238.4 1708.44C1235.18 1705.96 1231.86 1711.11 1234.26 1713.78C1261.05 1743.88 1293.91 1770.21 1325.12 1795.71C1347.4 1813.94 1371.61 1838.61 1400.42 1845.15C1402.82 1845.79 1404.66 1842.2 1402.17 1841.1Z" fill="#262625"/>
<path d="M1302.57 1702C1292.44 1701.81 1282.41 1705.31 1272.28 1705.4C1269.7 1705.4 1268.96 1709.45 1271.63 1710.01C1282.13 1712.03 1293.27 1714.98 1303.76 1711.2C1308.64 1709.45 1308.09 1702.09 1302.57 1702Z" fill="#262625"/>
<path d="M1462.75 1666.56C1439.46 1672.54 1416.9 1680.92 1393.61 1686.99C1370.41 1693.07 1346.57 1697.03 1323.83 1704.67C1321.34 1705.5 1321.71 1709.27 1324.47 1709.36C1371.06 1709.82 1424.54 1695.28 1466.71 1675.95C1472.14 1673.46 1468.27 1665.17 1462.75 1666.56Z" fill="#262625"/>
<path d="M1440.56 1703.29C1395.36 1718.84 1345.83 1726.67 1298.51 1731.92C1292.35 1732.56 1292.07 1741.86 1298.51 1741.77C1350.07 1740.66 1395.45 1727.31 1442.31 1707.34C1444.52 1706.32 1442.86 1702.46 1440.56 1703.29Z" fill="#262625"/>
<path d="M1345.65 1764.41C1340.31 1759.99 1335.15 1755.48 1330.46 1750.42C1328.71 1748.49 1325.3 1751.07 1326.78 1753.27C1334.42 1764.69 1344.08 1777.95 1357.06 1783.47C1360.93 1785.13 1365.26 1780.71 1361.85 1777.3C1356.88 1772.42 1350.99 1768.83 1345.65 1764.41Z" fill="#262625"/>
<path d="M1427.4 1817.53C1410.73 1808.14 1390.94 1804.27 1376.03 1791.29C1374 1789.55 1370.96 1792.4 1372.99 1794.33C1387.35 1807.4 1402.91 1824.16 1423.25 1827.38C1428.96 1828.21 1433.2 1820.75 1427.4 1817.53Z" fill="#262625"/>
<path d="M1414.6 1772.05C1403.65 1766.35 1392.41 1760.92 1381.83 1754.66C1379.71 1753.37 1377.04 1756.59 1379.07 1758.25C1388.36 1765.89 1397.39 1773.53 1407.51 1780.16C1415.98 1785.68 1426.84 1795.16 1437.34 1794.52C1440.29 1794.33 1442.59 1791.2 1440.84 1788.44C1435.5 1779.97 1423.25 1776.66 1414.6 1772.05Z" fill="#262625"/>
<path d="M1453.17 1756.4C1437.89 1754.1 1417.45 1750.6 1404.57 1741.86C1402.08 1740.2 1399.78 1744.16 1402.17 1745.91C1410 1751.25 1416.16 1757.6 1424.82 1761.93C1432.74 1765.79 1440.84 1768.37 1449.49 1769.94C1458.33 1771.5 1461.92 1757.69 1453.17 1756.4Z" fill="#262625"/>
<path d="M1461 1728.33C1455.75 1726.3 1449.95 1727.96 1444.43 1727.77C1438.44 1727.59 1431.45 1727.87 1425.74 1725.93C1423.25 1725.1 1421.5 1729.06 1423.99 1730.17C1430.53 1733.21 1435.77 1737.07 1442.95 1738.91C1449.49 1740.57 1456.21 1742.32 1462.47 1739.19C1467.53 1736.7 1465.32 1729.98 1461 1728.33Z" fill="#262625"/>
<path d="M1406.13 1027.48C1401.8 1030.43 1397.57 1032.91 1393.7 1036.51C1391.12 1038.81 1394.62 1043.5 1397.48 1041.38C1399.5 1039.91 1401.62 1038.53 1403.37 1036.69C1405.21 1034.76 1406.87 1032.82 1408.8 1030.89C1410.46 1029.23 1408.16 1026.1 1406.13 1027.48Z" fill="#262625"/>
<path d="M1373.54 1067.44C1370.69 1072.04 1366.36 1075.63 1361.57 1078.12C1358.44 1079.77 1361.21 1084.1 1364.24 1082.72C1370.23 1080.05 1374.46 1075.54 1377.13 1069.55C1378.33 1067.16 1375.01 1065.04 1373.54 1067.44Z" fill="#262625"/>
<path d="M1329.26 1095.24C1294.28 1116.6 1262.06 1139.33 1223.39 1154.25C1185.47 1168.89 1145.51 1175.79 1105.38 1181.68C1037.07 1191.72 964.525 1201.38 911.039 1249.44C906.989 1253.12 912.328 1260.21 916.931 1257.08C985.423 1209.85 1065.33 1207 1144.68 1192.36C1211.7 1180.02 1285.81 1150.93 1331.75 1098.55C1333.31 1096.8 1331.38 1093.95 1329.26 1095.24Z" fill="#262625"/>
<path d="M933.041 1265.36C933.778 1265.36 934.422 1265.27 935.067 1265.18C936.171 1267.39 938.105 1269.14 941.235 1269.23C1113.29 1274.85 1220.91 1486.76 1404.29 1449.11C1406.32 1448.65 1406.41 1445.34 1404.29 1444.88C1362.4 1437.42 1321.16 1435.03 1280.66 1420.94C1234.35 1404.83 1193.57 1378.23 1153.89 1349.96C1089.45 1304.03 1023.44 1256.43 941.235 1254.41C937.184 1254.32 934.975 1256.89 934.33 1259.93C933.686 1260.02 932.949 1260.21 932.305 1260.3C929.635 1261.13 930.188 1265.46 933.041 1265.36Z" fill="#262625"/>
<path d="M1480.79 1438.34C1476.19 1438.8 1471.59 1438.43 1466.98 1438.99C1462.56 1439.54 1461.64 1445.06 1465.97 1446.72C1475.91 1450.49 1489.54 1445.8 1496.99 1438.62C1498.65 1437.05 1496.99 1434.01 1494.69 1434.75C1490 1436.22 1485.76 1437.88 1480.79 1438.34Z" fill="#262625"/>
<path d="M1442.22 1446.07C1439.27 1447.36 1434.02 1446.26 1430.89 1445.71C1427.76 1445.15 1424.73 1444.97 1421.6 1444.6C1418.56 1444.23 1416.9 1448.74 1419.11 1450.59C1423.07 1453.99 1427.21 1455.56 1432.46 1454.91C1434.58 1454.64 1436.6 1454.18 1438.53 1453.35C1440.65 1452.43 1442.31 1450.86 1444.43 1449.85C1446.82 1448.56 1444.7 1445.06 1442.22 1446.07Z" fill="#262625"/>
<path d="M986.436 1240.97C983.306 1240.32 982.017 1245.02 985.147 1245.75C996.378 1248.52 1007.43 1251.55 1018.84 1253.76C1022.52 1254.5 1024.09 1248.98 1020.41 1248.06C1009.08 1245.2 997.759 1243.27 986.436 1240.97Z" fill="#262625"/>
<path d="M1056.77 1259.2C1054.1 1258.83 1053.91 1262.88 1056.12 1263.71C1064.78 1266.93 1073.34 1269.69 1082.36 1271.35C1086.59 1272.18 1088.44 1266.1 1084.2 1264.81C1075.18 1261.96 1066.07 1260.48 1056.77 1259.2Z" fill="#262625"/>
<path d="M1370.41 1419.56C1377.22 1420.11 1378.88 1408.7 1372.07 1407.5C1319.96 1397.84 1273.93 1378.96 1228.83 1350.98C1187.77 1325.57 1149.01 1295.65 1105.28 1274.75C1102.61 1273.46 1100.68 1276.96 1102.98 1278.71C1180.59 1336.71 1269.7 1411.83 1370.41 1419.56Z" fill="#262625"/>
<path d="M1450.32 1410.08C1438.44 1403.73 1424.73 1406.67 1412.67 1410.63C1410.64 1411.28 1410.37 1414.5 1412.67 1415.05C1424.45 1417.54 1437.43 1421.03 1449.4 1417.08C1452.44 1416.06 1453.36 1411.74 1450.32 1410.08Z" fill="#262625"/>
<path d="M1489.35 1404C1482.63 1405.48 1475.45 1407.04 1468.55 1406.77C1466.15 1406.67 1465.42 1409.99 1467.35 1411.09C1476.19 1416.34 1484.47 1418.09 1494.51 1415.51C1496.53 1414.96 1498.37 1413.21 1498.83 1411.18C1500.21 1404.83 1494.69 1402.9 1489.35 1404Z" fill="#262625"/>
<path d="M1440.19 1036.14C1428.32 1048.57 1416.16 1061.82 1406.22 1075.91C1403.37 1079.96 1409.26 1083.27 1412.48 1080.69C1426.2 1070.01 1437.06 1054.09 1443.78 1038.16C1444.52 1036.23 1441.57 1034.76 1440.19 1036.14Z" fill="#262625"/>
<path d="M1389.47 1095.61C1387.44 1098.18 1384.13 1100.12 1381.46 1101.96C1378.79 1103.71 1376.3 1105.73 1373.63 1107.39C1369.86 1109.69 1373.17 1114.94 1377.04 1113.19C1380.63 1111.53 1383.85 1109.78 1386.61 1106.93C1389.28 1104.17 1390.94 1100.85 1393.24 1097.82C1394.99 1095.61 1391.22 1093.4 1389.47 1095.61Z" fill="#262625"/>
<path d="M1358.81 1123.32C1312.14 1154.62 1268.78 1185.18 1213.36 1199.45C1159.14 1213.35 1101.69 1217.22 1045.9 1218.23C1041.76 1218.32 1041.67 1224.86 1045.9 1224.77C1161.71 1222.83 1277.34 1218.32 1361.48 1126.72C1363.05 1125.07 1361.02 1121.94 1358.81 1123.32Z" fill="#262625"/>
<path d="M1120.47 1257.63C1125.08 1258.83 1126.73 1252.2 1122.41 1250.63C1117.89 1249.07 1113.48 1247.14 1108.87 1245.94C1104.18 1244.74 1099.48 1244.28 1094.79 1243.36C1092.3 1242.9 1090.18 1246.68 1092.95 1247.78C1097.27 1249.62 1101.42 1251.83 1105.83 1253.49C1110.44 1255.33 1115.5 1256.34 1120.47 1257.63Z" fill="#262625"/>
<path d="M1315.27 1353.19C1257.09 1324.1 1201.85 1296.66 1146.99 1261.22C1144.87 1259.84 1142.47 1262.97 1144.32 1264.72C1189.61 1307.34 1251.38 1345.45 1311.95 1360.92C1316.47 1362.02 1319.69 1355.4 1315.27 1353.19Z" fill="#262625"/>
<path d="M1347.49 1368.56C1344.82 1368.38 1344.73 1372.06 1346.94 1372.89C1391.59 1390.66 1444.33 1391.48 1491.47 1386.42C1498.74 1385.68 1499.02 1374.27 1491.47 1374.82C1442.31 1378.6 1396.28 1372.34 1347.49 1368.56Z" fill="#262625"/>
<path d="M1436.6 1097.17C1437.71 1095.24 1435.41 1092.75 1433.47 1094.04C1411.65 1108.31 1393.61 1128.84 1372.81 1144.77C1349.51 1162.63 1324.38 1176.43 1299.34 1191.53C1293.82 1194.85 1298.61 1202.39 1304.22 1199.91C1349.7 1180.12 1411.19 1141.08 1436.6 1097.17Z" fill="#262625"/>
<path d="M1283.51 1208.66C1272.55 1210.31 1258.38 1215.1 1250.74 1223.38C1248.07 1226.33 1250.74 1230.84 1254.6 1229.92C1260.31 1228.54 1264.91 1225.41 1269.98 1222.46C1275.22 1219.43 1280.47 1216.39 1285.35 1212.61C1287.19 1211.23 1285.99 1208.29 1283.51 1208.66Z" fill="#262625"/>
<path d="M1194.67 1250.82C1209.31 1247.23 1224.41 1242.26 1237.94 1235.63C1239.87 1234.71 1238.95 1231.3 1236.83 1231.49C1212.72 1233.23 1191.73 1242.99 1167.24 1238.39C1162.82 1237.56 1158.12 1243.27 1162.36 1246.77C1171.75 1254.32 1183.26 1253.58 1194.67 1250.82Z" fill="#262625"/>
<path d="M1414.14 1345.55C1419.94 1344.99 1420.03 1336.98 1414.14 1336.43C1337.64 1329.34 1273.84 1286.26 1200.66 1266.93C1198.17 1266.28 1196.7 1269.78 1198.91 1271.07C1232.97 1291.05 1270.71 1305.5 1307.17 1320.51C1340.77 1334.41 1377.04 1349.14 1414.14 1345.55Z" fill="#262625"/>
<path d="M1435.59 1340.48C1433.75 1340.94 1433.29 1343.8 1435.04 1344.72C1448.11 1351.71 1469.74 1351.81 1483.74 1347.48C1489.44 1345.73 1488.34 1337.35 1482.36 1337.08C1474.16 1336.71 1465.78 1338.46 1457.5 1338.64C1450.13 1338.83 1442.77 1338.55 1435.59 1340.48Z" fill="#262625"/>
<path d="M1455.38 1314.89C1457.96 1314.43 1457.22 1310.47 1454.74 1310.38C1420.03 1309.64 1384.77 1294.18 1352 1283.68C1319.14 1273.1 1286.73 1259.66 1253.41 1250.73C1249.82 1249.71 1247.24 1255.24 1250.74 1256.99C1285.53 1273.92 1324.2 1285.16 1361.11 1296.48C1390.76 1305.59 1423.99 1320.23 1455.38 1314.89Z" fill="#262625"/>
<path d="M1284.61 1239.22C1295.2 1237.1 1306.71 1235.35 1314.9 1227.71C1318.12 1224.67 1314.81 1218.23 1310.39 1219.98C1300.54 1223.66 1292.53 1230.93 1282.86 1234.98C1280.29 1236 1282.22 1239.68 1284.61 1239.22Z" fill="#262625"/>
<path d="M1330.18 1214.55C1328.43 1216.11 1330.27 1219.33 1332.48 1218.51C1355.13 1209.85 1375.2 1195.31 1394.72 1181.04C1414.23 1166.77 1435.04 1151.76 1450.96 1133.63C1454.55 1129.58 1449.77 1122.03 1444.8 1125.62C1424.27 1140.26 1405.85 1158.11 1385.6 1173.3C1367.19 1187.11 1347.3 1199.17 1330.18 1214.55Z" fill="#262625"/>
<path d="M1437.62 1168.61C1402.26 1200.92 1358.63 1226.42 1316.93 1249.53C1311.22 1252.66 1316.28 1260.48 1321.9 1258C1369.31 1237.56 1404.93 1207.55 1440.75 1171.65C1442.59 1169.71 1439.64 1166.77 1437.62 1168.61Z" fill="#262625"/>
<path d="M1391.77 1274.57C1396.56 1274.57 1396.65 1268.49 1392.78 1266.84C1380.35 1261.59 1366.73 1259.93 1354.21 1254.32C1351.54 1253.12 1349.33 1256.62 1351.82 1258.37C1363.6 1266.01 1377.5 1274.48 1391.77 1274.57Z" fill="#262625"/>
<path d="M1470.11 1289.57C1476.46 1288.29 1474.35 1279.54 1468.64 1278.99C1449.77 1277.33 1430.25 1280.37 1411.66 1274.39C1409.08 1273.56 1407.97 1277.52 1410.55 1278.44C1429.51 1285.34 1449.31 1293.72 1470.11 1289.57Z" fill="#262625"/>
<path d="M1470.11 1246.77C1461.83 1242.16 1452.16 1242.99 1442.77 1242.26C1429.7 1241.15 1416.35 1240.32 1403.37 1238.57C1400.52 1238.21 1399.23 1242.07 1402.17 1242.99C1414.42 1246.68 1426.29 1250.36 1438.81 1252.66C1448.48 1254.41 1459.62 1257.63 1469.1 1254.22C1472.32 1253.03 1473.43 1248.52 1470.11 1246.77Z" fill="#262625"/>
<path d="M1468.73 1212.89C1453.91 1216.48 1434.76 1220.99 1419.48 1217.86C1416.53 1217.31 1415.34 1221.73 1418.28 1222.37C1427.31 1224.21 1435.5 1227.71 1444.8 1228.54C1454.19 1229.37 1463.3 1228.26 1472.51 1226.33C1481.16 1224.58 1477.48 1210.77 1468.73 1212.89Z" fill="#262625"/>
<path d="M1433.1 1194.94C1430.16 1195.03 1430.07 1199.54 1433.1 1199.63C1440.01 1199.82 1446.08 1201.47 1453.08 1200.46C1459.34 1199.54 1466.98 1198.99 1471.22 1193.83C1474.35 1189.97 1472.51 1183.8 1466.98 1183.71C1461.18 1183.61 1456.86 1187.21 1451.61 1189.23C1446.08 1191.44 1439.09 1194.75 1433.1 1194.94Z" fill="#262625"/>
<path d="M1144.87 573.081C1147.45 568.755 1149.01 564.336 1150.94 559.733C1152.05 557.247 1148.73 555.13 1147.17 557.523C1144.41 561.758 1141.65 565.44 1139.44 569.951C1137.78 573.542 1142.75 576.58 1144.87 573.081Z" fill="#262625"/>
<path d="M1129.59 624.634C1134.37 619.663 1136.58 613.771 1136.77 606.959C1136.86 604.658 1132.99 604.013 1132.62 606.407C1131.8 611.654 1129.31 616.717 1125.81 620.86C1123.6 623.438 1127.19 627.12 1129.59 624.634Z" fill="#262625"/>
<path d="M1102.06 649.49C1078.13 681.987 1057.41 714.852 1028.05 743.206C997.114 772.941 961.027 795.311 924.296 817.221C867.035 851.375 804.711 888.383 775.161 951.259C772.491 956.874 780.132 961.477 783.538 956.138C866.207 828.82 1054.28 807.187 1105.93 651.147C1106.76 648.662 1103.44 647.649 1102.06 649.49Z" fill="#262625"/>
<path d="M801.581 957.979C801.95 957.795 802.318 957.611 802.686 957.427C804.251 959.084 806.645 959.912 809.59 958.808C970.785 898.141 1151.86 1052.62 1306.89 947.668C1308.92 946.288 1307.72 943.157 1305.23 943.71C1260.13 953.652 1218.42 968.014 1171.47 969.21C1124.43 970.499 1078.49 961.109 1032.92 950.522C957.989 933.215 880.107 915.816 805.724 944.538C802.042 945.919 800.569 949.325 800.753 952.455C800.2 952.824 799.648 953.1 799.096 953.56C796.426 955.493 798.635 959.268 801.581 957.979Z" fill="#262625"/>
<path d="M1360.56 914.435C1357.16 916.276 1358.63 921.892 1362.59 921.8C1373.45 921.524 1384.68 912.042 1388.73 902.099C1389.74 899.706 1386.43 898.601 1384.87 899.798C1381 902.928 1377.68 906.058 1373.27 908.451C1369.12 910.753 1364.7 912.134 1360.56 914.435Z" fill="#262625"/>
<path d="M1321.62 943.342C1326.13 944.907 1330.46 944.631 1334.69 942.421C1336.44 941.501 1338.1 940.304 1339.57 939.015C1341.51 937.174 1342.33 934.965 1344.08 933.032C1345.92 931.006 1342.98 928.06 1341.05 929.994C1338.93 932.203 1334.69 933.216 1331.75 933.86C1328.34 934.688 1325.03 935.517 1321.62 936.53C1318.21 937.542 1318.49 942.237 1321.62 943.342Z" fill="#262625"/>
<path d="M840.983 915.172C837.853 915.816 839.234 920.419 842.272 919.959C853.779 918.21 865.103 916.737 876.518 914.435C880.292 913.699 878.635 908.175 874.953 908.728C863.446 910.477 852.306 912.962 840.983 915.172Z" fill="#262625"/>
<path d="M913.525 904.953C911.131 905.598 911.5 909.556 914.169 909.464C923.651 909.096 932.857 908.36 942.155 906.334C945.838 905.506 945.101 899.246 941.235 899.614C931.753 900.535 922.639 902.468 913.525 904.953Z" fill="#262625"/>
<path d="M963.053 905.321C1056.49 928.888 1168.07 964.791 1263.62 933.399C1271.17 930.914 1268.14 919.867 1260.31 921.524C1206.46 933.031 1155.64 932.203 1101.42 923.089C1055.57 915.356 1010.19 903.48 963.605 900.903C961.12 900.626 960.567 904.677 963.053 905.321Z" fill="#262625"/>
<path d="M1336.81 900.35C1339.57 897.957 1337.09 894.09 1334.14 893.814C1327.24 893.17 1321.16 895.563 1314.9 898.233C1308.82 900.903 1304.77 904.677 1299.89 908.912C1298.05 910.477 1300.08 913.146 1302.1 912.686C1308.82 911.397 1314.81 910.661 1321.34 908.175C1327.05 906.058 1332.02 904.401 1336.81 900.35Z" fill="#262625"/>
<path d="M1350.44 888.199C1360.38 889.672 1368.94 888.475 1377.04 882.123C1379.71 880.098 1381.09 876.783 1379.25 873.653C1377.78 870.984 1373.45 869.419 1370.78 871.444C1364.8 876.047 1357.52 881.11 1350.44 883.688C1348.5 884.424 1347.95 887.831 1350.44 888.199Z" fill="#262625"/>
<path d="M1173.31 604.566C1181.97 589.376 1186.29 570.504 1186.2 553.105C1186.2 550.527 1182.89 550.435 1182.06 552.552C1175.8 568.202 1169.82 585.049 1166.04 601.528C1165.03 605.762 1171.01 608.616 1173.31 604.566Z" fill="#262625"/>
<path d="M1152.88 647.926C1155.55 645.164 1157.85 642.218 1159.41 638.72C1160.98 635.037 1161.26 631.263 1162.27 627.488C1163 624.819 1158.77 623.622 1158.13 626.292C1157.2 629.698 1155 632.552 1153.06 635.498C1151.22 638.26 1149.66 641.205 1147.63 643.875C1145.42 646.913 1150.3 650.687 1152.88 647.926Z" fill="#262625"/>
<path d="M1022.8 798.81C980.728 827.992 933.87 850.915 887.196 871.536C883.329 873.193 886.644 878.809 890.51 877.152C996.93 831.583 1101.6 782.423 1144.22 665.785C1145.14 663.391 1141.55 662.195 1140.27 664.128C1105.93 715.681 1074.54 762.907 1022.8 798.81Z" fill="#262625"/>
<path d="M957.897 881.018C962.592 880.65 967.287 879.729 971.982 879.085C976.033 878.533 975.02 871.812 971.061 871.996C965.998 872.273 960.751 872.273 955.688 873.009C950.993 873.654 946.482 875.034 941.879 876.047C939.117 876.599 939.853 880.742 942.523 880.834C947.678 880.834 952.742 881.386 957.897 881.018Z" fill="#262625"/>
<path d="M1187.4 892.894C1122.68 888.659 1061.65 884.332 997.666 872.365C994.812 871.812 993.799 875.679 996.469 876.691C1054.74 898.601 1126.55 909.648 1188.6 901.271C1193.57 900.535 1191.91 893.17 1187.4 892.894Z" fill="#262625"/>
<path d="M1224.5 899.062C1273.01 898.601 1322.17 878.901 1364.24 855.886C1370.78 852.296 1364.98 842.538 1358.35 845.852C1314.62 868.038 1270.07 879.453 1223.85 894.643C1221.65 895.471 1221.92 899.062 1224.5 899.062Z" fill="#262625"/>
<path d="M1111.17 750.203C1107.86 754.621 1115.04 760.053 1118.82 756.094C1154.26 718.719 1193.94 662.102 1202.13 610.273C1202.5 607.788 1199.46 606.223 1197.99 608.524C1182.98 631.539 1173.41 658.328 1159.32 682.171C1145.05 706.291 1127.93 727.924 1111.17 750.203Z" fill="#262625"/>
<path d="M1103.63 771.468C1093.87 777.913 1082.54 786.934 1078.59 798.257C1077.48 801.387 1081.62 804.609 1084.39 802.676C1089.26 799.178 1092.39 794.483 1095.98 789.788C1099.76 784.817 1103.35 779.754 1106.66 774.506C1107.86 772.665 1105.47 770.272 1103.63 771.468Z" fill="#262625"/>
<path d="M1038.26 843.826C1049.96 834.896 1061.83 825.23 1071.41 814.091C1073.06 812.158 1071.04 809.488 1068.74 810.593C1058.06 815.84 1048.85 823.021 1039.09 829.833C1028.51 837.198 1019.12 840.788 1006.69 843.55C1001.53 844.747 1002.27 851.743 1006.69 853.216C1017.83 857.175 1029.34 850.638 1038.26 843.826Z" fill="#262625"/>
<path d="M1273.47 839.408C1199.74 861.778 1124.71 846.956 1049.31 857.083C1047.1 857.359 1045.91 861.133 1048.67 861.594C1091.11 867.485 1135.29 866.473 1178.1 865.92C1211.33 865.46 1247.15 864.355 1276.88 847.877C1281.48 845.299 1278.45 837.935 1273.47 839.408Z" fill="#262625"/>
<path d="M1295.75 839.315C1304.22 840.328 1312.69 837.29 1320.42 834.16C1327.88 831.122 1335.89 828.176 1341.87 822.745C1345.74 819.246 1341.69 812.25 1336.72 813.907C1329.08 816.485 1322.17 821.364 1314.72 824.678C1307.63 827.9 1300.17 830.386 1294 835.357C1292.35 836.738 1294.1 839.131 1295.75 839.315Z" fill="#262625"/>
<path d="M1092.12 828.729C1132.35 831.122 1174.23 826.427 1214.28 822.469C1242.91 819.615 1277.52 819.983 1302.56 804.149C1304.59 802.86 1303.3 798.994 1300.82 800.007C1268.5 812.711 1230.3 811.882 1195.96 814.736C1161.44 817.498 1126.36 817.498 1092.12 822.008C1087.88 822.469 1087.61 828.453 1092.12 828.729Z" fill="#262625"/>
<path d="M1115.87 799.546C1124.61 793.747 1134.83 787.763 1139.44 777.728C1141.55 773.033 1136.21 768.246 1132.16 772.113C1124.8 779.109 1120.29 788.683 1113.11 795.956C1111.17 797.705 1113.57 801.019 1115.87 799.546Z" fill="#262625"/>
<path d="M1148.92 758.856C1147.72 761.249 1150.67 763.643 1152.69 761.71C1185.74 729.949 1214.37 680.514 1229.65 637.522C1231.68 631.907 1223.21 628.777 1220.26 633.564C1207.84 654.001 1197.89 676.187 1185.83 696.9C1173.68 717.706 1159.51 737.314 1148.92 758.856Z" fill="#262625"/>
<path d="M1157.2 803.045C1193.2 765.945 1215.02 724.058 1234.44 677.016C1235.36 674.715 1231.5 673.15 1230.48 675.359C1210.23 718.442 1179.76 759.04 1150.21 796.048C1146.43 800.927 1152.69 807.647 1157.2 803.045Z" fill="#262625"/>
<path d="M1228.18 791.169C1232.05 789.604 1231.86 783.528 1227.17 783.436C1213.36 783.344 1199.92 787.026 1186.02 786.658C1183.44 786.566 1182.8 790.709 1185.37 791.261C1198.91 793.839 1215.02 796.416 1228.18 791.169Z" fill="#262625"/>
<path d="M1247.15 787.486C1266.85 786.473 1288.94 787.21 1306.06 775.242C1310.85 771.928 1308.09 763.551 1301.92 765.392C1283.6 770.916 1266.75 781.686 1247.15 783.159C1244.48 783.436 1244.48 787.67 1247.15 787.486Z" fill="#262625"/>
<path d="M1225.33 753.333C1222.93 753.977 1223.3 758.028 1225.97 757.844C1238.12 756.647 1249.91 755.634 1261.97 753.148C1272.28 751.031 1285.07 749.927 1292.81 742.286C1294.74 740.352 1294.09 736.026 1291.06 735.565C1280.75 734.092 1271.17 739.34 1261.41 742.378C1249.35 745.968 1237.39 750.111 1225.33 753.333Z" fill="#262625"/>
<path d="M1233.43 732.62C1242.73 730.87 1251.66 730.962 1260.77 727.924C1269.15 725.163 1276.6 721.112 1283.88 716.141C1291.33 711.078 1284.06 698.834 1276.79 704.081C1264.36 713.195 1247.51 725.163 1232.14 728.109C1229.29 728.753 1230.57 733.172 1233.43 732.62Z" fill="#262625"/>
<path d="M1237.85 706.107C1244.2 703.437 1250.74 702.885 1256.9 699.202C1262.15 696.072 1270.34 691.93 1271.36 685.394C1272.09 680.975 1268.78 676.832 1264.08 678.121C1258.19 679.594 1255.06 685.854 1250.83 689.812C1246.87 693.587 1241.71 699.478 1236.65 701.596C1233.89 702.7 1235.09 707.211 1237.85 706.107Z" fill="#262625"/>
<path d="M731.985 237.896C732.354 235.41 732.906 232.925 732.814 230.347C732.722 227.677 732.538 225.1 732.538 222.43C732.538 220.036 728.763 219.392 728.303 221.878C727.29 227.033 726.094 231.728 725.818 237.067C725.725 240.473 731.433 241.394 731.985 237.896Z" fill="#262625"/>
<path d="M732.629 289.172C731.525 292.487 736.588 293.775 737.784 290.645C740.178 284.478 739.994 278.31 737.6 272.142C736.68 269.656 732.905 270.577 733.55 273.246C734.747 278.494 734.286 284.017 732.629 289.172Z" fill="#262625"/>
<path d="M624.736 543.439C583.494 598.858 539.029 657.039 535.163 728.845C534.887 734.277 543.724 735.565 544.737 730.134C559.743 648.294 614.241 589.836 659.995 523.37C698.659 467.214 730.512 394.304 726.001 324.615C725.817 322.314 722.41 321.577 721.858 324.063C712.192 363.832 705.472 402.773 688.717 440.609C672.331 477.801 648.948 510.942 624.736 543.439Z" fill="#262625"/>
<path d="M562.045 724.61C562.505 724.15 562.873 723.598 563.334 723.138C565.635 723.966 568.305 723.69 570.606 721.481C641.031 655.29 739.166 652.16 828.831 633.472C900.176 618.651 983.766 585.05 1025.19 521.253C1026.39 519.504 1024 517.018 1022.25 518.307C986.436 543.071 954.951 571.241 915.182 590.021C871.822 610.642 824.965 620.308 777.923 628.225C700.041 641.297 619.397 654.278 560.112 710.986C557.166 713.748 557.35 717.246 559.099 719.823C558.731 720.376 558.363 720.928 557.994 721.481C556.521 723.966 560.019 726.728 562.045 724.61Z" fill="#262625"/>
<path d="M1067.08 475.96C1076.56 471.725 1083.28 458.561 1083.28 448.342C1083.28 446.133 1080.06 445.12 1078.95 447.145C1076.65 451.38 1074.9 455.523 1071.87 459.297C1068.92 462.979 1065.33 466.11 1062.29 469.792C1059.53 473.382 1062.94 477.893 1067.08 475.96Z" fill="#262625"/>
<path d="M1036.7 511.863C1041.85 511.771 1046.09 509.469 1049.22 505.419C1050.6 503.578 1051.71 501.644 1052.53 499.527C1052.99 498.422 1052.81 497.594 1052.99 496.489C1053.18 495.477 1053.64 494.464 1053.91 493.451C1054.84 490.874 1050.78 489.769 1049.86 492.347C1048.85 495.108 1045.17 497.686 1042.68 499.435C1039.74 501.46 1036.98 503.578 1034.21 505.879C1031.82 507.904 1033.75 511.955 1036.7 511.863Z" fill="#262625"/>
<path d="M584.968 673.886C594.91 667.902 604.853 662.195 614.427 655.751C617.557 653.633 614.703 648.662 611.481 650.687C601.539 656.671 592.149 663.207 582.483 669.651C579.813 671.4 582.206 675.635 584.968 673.886Z" fill="#262625"/>
<path d="M668.465 617.269C660.272 621.596 652.907 626.751 645.634 632.367C643.333 634.116 645.266 637.522 647.936 636.326C656.313 632.459 664.322 628.409 671.963 623.161C675.461 620.768 672.331 615.244 668.465 617.269Z" fill="#262625"/>
<path d="M691.572 613.864C787.036 599.779 904.043 590.573 980.268 524.383C985.515 519.872 978.611 510.758 972.811 514.717C932.305 542.426 890.234 561.298 842.456 573.358C791.915 586.154 739.626 592.23 690.283 609.445C687.521 610.458 688.718 614.232 691.572 613.864Z" fill="#262625"/>
<path d="M1034.4 466.754C1035.96 463.992 1033.38 460.033 1030.07 461.138C1023.63 463.348 1019.39 466.938 1014.51 471.725C1012.4 473.842 1010.65 476.052 1008.9 478.445C1006.6 481.667 1005.68 484.613 1003.93 488.111C1003.01 490.045 1005.03 492.53 1007.06 491.241C1009.36 489.676 1011.94 488.848 1014.24 487.099C1017 485.073 1019.67 482.956 1022.15 480.655C1026.94 476.328 1031.18 472.554 1034.4 466.754Z" fill="#262625"/>
<path d="M1042.96 449.907C1052.53 447.513 1061.28 442.542 1065.42 433.152C1068.55 426.064 1059.35 420.356 1054.83 426.984C1050.42 433.429 1046.46 440.701 1040.57 446.041C1038.91 447.606 1040.75 450.367 1042.96 449.907Z" fill="#262625"/>
<path d="M770.373 255.018C772.398 238.172 769.176 218.931 762.64 203.282C761.811 201.256 758.497 201.256 758.497 203.834C758.589 220.957 759.694 239.092 762.548 256.031C763.376 260.91 769.912 259.069 770.373 255.018Z" fill="#262625"/>
<path d="M761.812 301.324C760.799 305.559 766.783 307.124 768.256 303.073C769.545 299.667 770.557 296.261 770.649 292.578C770.649 288.62 769.453 285.122 768.992 281.255C768.624 278.493 764.297 278.493 764.666 281.255C765.126 284.753 764.205 288.252 763.561 291.658C762.916 294.88 762.548 298.102 761.812 301.324Z" fill="#262625"/>
<path d="M608.533 611.47C605.588 614.508 610.191 619.111 613.136 616.073C693.78 533.128 772.214 447.606 766.966 323.695C766.874 321.393 763.192 320.565 762.732 323.142C751.685 379.206 742.203 432.416 712.284 482.312C683.93 529.446 646.554 571.885 608.533 611.47Z" fill="#262625"/>
<path d="M689.085 586.614C693.136 584.221 689.545 578.421 685.403 580.354C681.076 582.38 676.657 584.221 672.514 586.614C668.372 589.1 664.689 592.138 660.731 594.807C658.614 596.188 659.902 600.331 662.572 599.226C666.899 597.477 671.502 596.096 675.736 594.163C680.431 592.046 684.666 589.192 689.085 586.614Z" fill="#262625"/>
<path d="M894.285 516.465C832.605 537.455 774.24 556.787 710.259 570.412C707.774 570.964 708.326 574.831 710.812 574.739C773.32 572.713 843.192 555.866 897.507 524.198C901.557 521.805 898.98 514.9 894.285 516.465Z" fill="#262625"/>
<path d="M927.978 504.498C926.321 505.879 928.07 509.101 930.188 508.18C974.376 489.676 1013.13 452.485 1042.5 415.293C1047.01 409.585 1039.28 401.392 1034.31 407.1C1002.18 444.476 965.078 472.646 927.978 504.498Z" fill="#262625"/>
<path d="M778.29 415.937C796.518 366.686 809.959 301.877 799.188 249.587C798.727 247.47 795.137 247.378 794.769 249.587C791.087 273.338 791.547 297.642 788.693 321.577C784.919 352.969 777.002 382.796 768.9 413.268C767.243 419.436 776.081 421.645 778.29 415.937Z" fill="#262625"/>
<path d="M769.729 436.743C763.101 445.673 756.564 459.113 756.933 470.344C757.025 474.211 762.18 475.684 764.297 472.37C767.519 467.03 768.624 461.138 770.189 455.155C771.754 449.447 773.135 443.739 773.871 437.848C774.148 435.362 770.833 435.178 769.729 436.743Z" fill="#262625"/>
<path d="M735.851 530.735C744.044 517.57 751.685 502.749 756.564 488.019C757.209 485.994 754.263 484.153 752.882 485.81C744.136 495.752 737.784 507.26 730.604 518.307C723.976 528.433 716.611 533.405 707.497 540.677C703.907 543.531 707.129 549.054 711.087 549.238C721.95 549.699 730.512 539.296 735.851 530.735Z" fill="#262625"/>
<path d="M958.817 441.162C962.407 436.559 956.976 430.943 952.373 434.717C892.627 483.14 817.875 498.422 752.237 536.534C750.028 537.823 751.501 541.322 753.986 540.677C795.321 529.906 835.55 512.047 874.767 495.2C904.87 482.22 938.288 467.674 958.817 441.162Z" fill="#262625"/>
<path d="M973.086 425.696C981.187 423.21 987.539 417.871 993.615 411.979C999.599 406.179 1006.69 399.735 1009.91 392.002C1012.21 386.479 1004.66 384.085 1001.07 386.847C994.996 391.634 990.485 399.367 985.053 405.075C979.806 410.598 974.375 415.754 970.416 422.29C969.496 424.039 971.153 426.34 973.086 425.696Z" fill="#262625"/>
<path d="M778.198 487.743C774.976 489.584 777.094 495.292 780.868 494.003C817.508 481.299 852.674 461.967 886.828 443.831C914.169 429.378 948.047 416.306 966.366 390.345C967.931 388.136 964.617 385.834 962.776 387.583C937.644 411.795 901.925 425.603 871.178 441.346C840.43 457.088 808.025 470.528 778.198 487.743Z" fill="#262625"/>
<path d="M796.702 425.604C792.375 435.178 791.823 446.041 787.865 455.707C786.852 458.284 790.718 459.573 792.099 457.456C798.083 448.526 804.988 439.136 805.356 427.905C805.54 423.578 798.635 421.277 796.702 425.604Z" fill="#262625"/>
<path d="M811.339 409.033C829.29 366.686 836.839 311.083 835.09 265.238C834.906 259.806 825.884 257.873 825.056 263.857C818.335 311.083 810.234 360.334 806.92 407.837C806.736 410.138 810.418 411.243 811.339 409.033Z" fill="#262625"/>
<path d="M831.685 444.568C850.465 396.329 855.252 350.484 854.699 299.484C854.699 296.63 850.557 296.722 850.373 299.484C847.427 347.446 835.643 396.053 822.203 441.99C820.454 448.158 829.475 450.368 831.685 444.568Z" fill="#262625"/>
<path d="M853.319 423.394C866.851 420.633 882.777 416.674 892.904 406.732C895.481 404.154 892.904 398.631 889.037 400.196C876.149 405.443 865.102 414.004 852.03 418.975C849.268 419.988 850.281 424.039 853.319 423.394Z" fill="#262625"/>
<path d="M906.804 392.647C904.318 393.843 906.527 397.434 908.921 396.329C926.412 388.136 948.506 379.943 958.817 362.083C961.302 357.756 955.963 351.312 951.452 354.718C944.179 360.242 938.564 367.883 931.752 373.959C924.387 380.495 915.641 388.136 906.804 392.647Z" fill="#262625"/>
<path d="M875.597 373.038C873.295 374.787 875.229 378.378 877.898 376.997C889.406 370.829 900.545 364.937 911.316 357.48C919.049 352.141 930.832 346.065 933.594 336.675C934.515 333.453 931.477 331.336 928.623 331.704C919.509 332.993 911.684 343.119 904.78 348.919C895.113 356.928 885.631 365.397 875.597 373.038Z" fill="#262625"/>
<path d="M872.375 347.078C869.889 348.735 872.191 352.693 874.768 351.128C882.501 346.157 890.694 342.751 897.783 336.767C904.964 330.691 910.671 323.602 915.734 315.685C920.614 308.137 908.278 300.956 903.675 308.597C899.532 315.593 894.745 322.222 889.682 328.574C884.711 335.018 879.187 342.659 872.375 347.078Z" fill="#262625"/>
<path d="M869.061 324.523C871.546 322.038 874.952 320.289 877.622 317.895C880.108 315.686 882.225 313.108 884.25 310.346C888.301 304.915 893.18 298.931 891.707 291.842C890.694 287.055 884.987 286.687 881.765 289.173C877.346 292.763 876.793 299.667 874.584 304.639C872.283 309.794 869.797 317.067 865.838 321.117C863.721 323.419 866.943 326.641 869.061 324.523Z" fill="#262625"/>
<path d="M216.271 86.9196C217.56 90.6019 223.268 89.221 222.255 85.2625C221.059 80.3834 218.941 76.1487 217.1 71.4537C216.087 68.876 212.313 69.7966 212.957 72.6505C213.97 77.6216 214.522 82.2246 216.271 86.9196Z" fill="#262625"/>
<path d="M247.94 132.488C247.756 125.584 245.178 119.876 240.483 114.905C238.826 113.156 235.696 115.457 237.169 117.483C240.299 121.809 242.14 127.149 242.601 132.488C242.785 135.894 248.032 136.079 247.94 132.488Z" fill="#262625"/>
<path d="M249.874 167.931C248.769 165.63 245.639 167.379 246.007 169.588C252.727 211.107 261.105 250.968 259.724 293.407C258.343 334.465 248.861 374.051 238.918 413.728C222.44 479.182 205.317 547.95 228.148 614.14C230.173 620.032 238.826 617.73 237.538 611.562C219.218 526.684 251.531 449.079 267.181 366.686C279.516 302.521 278.872 227.769 249.874 167.931Z" fill="#262625"/>
<path d="M251.715 600.239C251.899 599.871 251.991 599.503 252.083 599.134C254.384 599.226 256.594 598.214 257.883 595.268C297.468 507.536 385.2 467.03 460.78 415.938C521.907 374.603 587.545 311.543 601.63 235.778C602.09 233.385 599.052 232.004 597.671 234.122C572.263 273.523 552.654 313.936 519.697 348.366C487.937 381.415 449.917 406.639 411.252 430.759C345.707 471.541 277.399 514.532 245.086 587.903C243.521 591.493 244.81 594.9 247.112 597.017C247.02 597.661 246.835 598.306 246.743 598.95C246.283 602.08 250.518 603.277 251.715 600.239Z" fill="#262625"/>
<path d="M622.711 177.874C630.076 170.049 631.365 155.872 627.498 146.022C626.578 143.536 623.172 143.905 622.895 146.666C622.435 151.637 622.251 156.24 620.778 161.119C619.489 165.538 617.372 169.589 616.083 174.1C615.162 177.782 620.042 180.82 622.711 177.874Z" fill="#262625"/>
<path d="M609.087 222.062C613.321 220.037 616.175 216.722 617.556 212.304C618.201 210.37 618.477 208.345 618.569 206.412C618.661 203.742 617.74 201.625 617.556 198.955C617.372 196.285 613.229 196.193 613.321 198.955C613.414 201.993 611.112 205.676 609.547 208.253C607.706 211.291 605.957 214.237 604.3 217.275C602.551 220.497 606.049 223.627 609.087 222.062Z" fill="#262625"/>
<path d="M253.555 544.635C260.46 535.245 267.456 526.223 273.9 516.557C276.018 513.335 271.047 510.573 268.837 513.611C261.933 522.909 255.765 532.575 249.321 542.15C247.48 544.819 251.714 547.121 253.555 544.635Z" fill="#262625"/>
<path d="M309.159 460.218C303.083 467.491 298.112 475.316 293.417 483.509C292.128 485.718 295.166 488.204 297.007 486.271C303.452 479.366 309.435 472.278 314.591 464.361C316.616 461.231 311.645 457.272 309.159 460.218Z" fill="#262625"/>
<path d="M325.914 445.212C323.981 446.961 326.466 450.091 328.675 448.803C411.068 399.919 516.291 345.789 561.032 256.216C564.53 249.127 554.772 243.327 550.445 250.048C520.526 295.893 484.531 331.428 439.882 363.004C401.586 389.885 360.712 413.82 325.914 445.212Z" fill="#262625"/>
<path d="M569.317 213.224C569.133 215.618 572.355 216.078 573.552 214.329C577.327 208.714 581.101 203.926 583.955 197.666C586.532 191.959 588.834 187.264 589.386 181.004C589.662 177.413 585.152 176.401 582.85 178.334C577.695 182.569 575.301 188.092 572.816 194.26C570.054 200.612 569.87 206.412 569.317 213.224Z" fill="#262625"/>
<path d="M590.49 162.776C594.265 160.014 598.131 156.976 600.617 152.925C603.378 148.415 604.575 143.259 605.22 138.104C605.68 134.79 602.09 131.936 599.052 131.936C595.369 131.936 593.252 134.79 592.884 138.104C591.963 145.101 590.306 153.202 587.36 159.554C586.44 161.487 588.373 164.341 590.49 162.776Z" fill="#262625"/>
<path d="M257.33 90.4177C259.723 94.1921 265.799 91.7985 264.602 87.3797C259.999 70.5329 249.597 54.2386 237.353 41.9028C235.512 40.0616 233.118 42.3631 234.039 44.4804C240.759 60.0384 248.308 76.1485 257.33 90.4177Z" fill="#262625"/>
<path d="M272.152 123.743C272.796 126.965 273.717 130.095 274.269 133.409C274.914 137.184 280.989 136.263 280.897 132.489C280.805 128.53 280.437 124.848 278.872 121.165C277.399 117.483 274.913 114.721 272.98 111.315C271.599 108.922 267.825 111.039 269.206 113.525C270.955 116.563 271.415 120.337 272.152 123.743Z" fill="#262625"/>
<path d="M296.824 324.339C288.171 376.997 270.772 429.102 251.071 478.537C249.506 482.404 255.858 484.153 257.331 480.286C299.678 371.933 339.816 264.593 287.25 151.36C286.146 148.967 282.832 150.716 283.292 153.018C294.983 210.738 306.491 265.145 296.824 324.339Z" fill="#262625"/>
<path d="M310.632 419.62C307.226 423.302 303.728 426.984 300.69 430.943C297.836 434.809 295.627 439.044 292.957 443.003C291.392 445.304 294.89 447.882 296.732 445.949C300.23 442.358 304.28 439.32 307.595 435.454C310.725 431.864 313.486 427.813 316.34 423.947C318.826 420.633 313.394 416.582 310.632 419.62Z" fill="#262625"/>
<path d="M478.455 281.348C455.256 301.048 434.819 323.603 411.068 342.843C385.015 363.924 357.213 382.06 329.688 401.116C327.294 402.773 329.319 406.087 331.897 404.982C387.869 380.127 448.72 336.307 484.991 286.595C488.213 282.36 481.953 278.402 478.455 281.348Z" fill="#262625"/>
<path d="M509.111 259.53C542.989 225.1 564.07 176.125 577.327 130.279C579.444 123.099 568.489 120.153 566.187 127.241C550.906 173.915 527.615 213.5 505.613 256.86C504.508 258.977 507.27 261.371 509.111 259.53Z" fill="#262625"/>
<path d="M323.705 234.397C324.442 239.829 333.464 238.54 333.279 233.109C331.438 180.359 319.655 115.089 289.091 71.0853C287.618 68.968 284.304 70.2567 284.949 72.8343C291.117 99.7155 302.808 125.4 309.712 152.281C316.617 179.346 319.931 206.78 323.705 234.397Z" fill="#262625"/>
<path d="M333.372 254.743C330.518 266.066 329.781 280.611 334.568 291.474C335.857 294.42 341.289 293.775 341.749 290.553C343.406 279.414 340.552 265.606 337.606 254.743C337.054 252.625 333.924 252.533 333.372 254.743Z" fill="#262625"/>
<path d="M315.787 374.327C312.934 379.022 318.365 383.072 322.692 381.231C332.818 376.72 336.501 364.293 338.066 354.074C340.367 338.976 341.748 323.05 340.735 307.769C340.551 305.283 337.145 304.731 336.409 307.216C332.266 319.736 330.885 332.624 328.4 345.421C326.098 356.744 321.679 364.569 315.787 374.327Z" fill="#262625"/>
<path d="M358.318 357.296C392.472 331.427 423.035 299.483 452.862 268.828C476.061 244.984 500.548 218.932 509.938 186.251C511.319 181.372 504.047 178.15 501.653 182.753C465.29 250.784 401.493 293.683 355.28 354.258C353.807 355.915 356.477 358.585 358.318 357.296Z" fill="#262625"/>
<path d="M517.212 166.827C523.933 161.579 527.707 153.478 531.021 145.745C534.151 138.381 537.742 130.556 538.202 122.455C538.478 117.299 530.653 115.182 528.352 119.785C524.761 127.057 523.288 135.343 520.434 142.892C517.673 150.164 514.175 157.345 513.346 165.17C512.978 167.471 515.832 167.932 517.212 166.827Z" fill="#262625"/>
<path d="M360.436 299.207C357.95 302.429 363.105 305.743 365.775 303.349C395.878 276.56 422.207 243.695 447.707 212.487C465.935 190.209 490.607 165.998 497.143 137.183C497.695 134.79 494.105 132.949 493 135.434C478.363 168.851 448.812 197.022 425.245 224.639C403.887 249.679 380.412 273.154 360.436 299.207Z" fill="#262625"/>
<path d="M361.817 265.974C363.842 255.479 366.788 244.34 363.014 233.845C361.265 229.058 353.992 229.611 353.9 235.042C353.716 245.169 357.214 255.203 357.306 265.329C357.306 267.907 361.357 268.643 361.817 265.974Z" fill="#262625"/>
<path d="M338.895 143.996C344.97 167.194 348.929 191.038 356.57 213.776C357.398 216.262 361.173 215.894 361.265 213.132C361.725 166.55 347.18 113.064 327.848 70.9011C325.362 65.4697 317.077 69.4282 318.457 74.8597C324.349 98.1506 332.819 120.797 338.895 143.996Z" fill="#262625"/>
<path d="M383.726 239.185C384.371 245.353 393.669 245.629 393.576 239.185C392.472 187.632 379.123 142.247 359.147 95.3889C358.226 93.1795 354.36 94.7446 355.188 97.046C370.746 142.339 378.571 191.775 383.726 239.185Z" fill="#262625"/>
<path d="M405.177 210.922C416.592 203.281 429.848 193.615 435.372 180.635C437.029 176.769 432.61 172.442 429.204 175.848C424.233 180.727 420.735 186.619 416.316 192.05C411.897 197.39 407.386 202.545 402.323 207.24C400.482 209.081 402.967 212.395 405.177 210.922Z" fill="#262625"/>
<path d="M446.234 164.618C459.306 150.256 476.061 134.698 479.283 114.353C480.204 108.738 472.655 104.503 469.433 110.211C460.043 126.873 456.176 146.666 443.196 161.58C441.447 163.605 444.393 166.643 446.234 164.618Z" fill="#262625"/>
<path d="M410.148 158.634C417.789 149.336 425.43 140.314 432.058 130.187C437.581 121.718 447.063 110.855 446.419 100.361C446.235 97.4146 443.105 95.1131 440.343 96.8622C431.874 102.202 428.56 114.445 424.049 123.099C418.341 134.054 412.91 145.285 406.65 155.872C405.361 157.989 408.491 160.659 410.148 158.634Z" fill="#262625"/>
<path d="M397.72 135.526C403.059 127.701 409.411 121.533 413.738 112.879C417.604 104.962 420.182 96.8613 421.747 88.2078C423.404 79.3702 409.595 75.6878 408.306 84.5255C406.005 99.8072 402.507 120.244 393.761 133.132C392.012 135.618 396.062 138.011 397.72 135.526Z" fill="#262625"/>
<path d="M382.07 113.616C385.108 107.08 388.975 101.833 390.816 94.6525C392.473 88.1163 394.222 81.3958 391.092 75.1358C388.606 70.0726 381.886 72.19 380.229 76.5167C378.204 81.7641 379.861 87.5638 379.677 93.0873C379.493 99.0711 379.769 106.068 377.835 111.775C376.915 114.261 380.965 116.01 382.07 113.616Z" fill="#262625"/>
<path d="M90.888 70.6253C91.4403 75.0441 96.9639 75.9648 98.6209 71.638C102.395 61.6957 97.7003 48.0708 90.5197 40.6141C88.9547 38.957 85.9168 40.6141 86.6533 42.9155C88.1262 47.6105 89.7833 51.8453 90.3356 56.8165C90.7039 61.4194 90.3356 66.0224 90.888 70.6253Z" fill="#262625"/>
<path d="M97.9773 95.4809C99.2661 98.4268 98.1614 103.674 97.609 106.804C97.0567 109.934 96.8726 112.972 96.5044 116.102C96.1361 119.14 100.647 120.797 102.488 118.588C105.894 114.629 107.459 110.487 106.815 105.239C106.539 103.122 106.078 101.096 105.25 99.1633C104.329 97.0459 102.764 95.3889 101.752 93.2716C100.463 90.786 96.8726 92.9953 97.9773 95.4809Z" fill="#262625"/>
<path d="M-93.5985 596.373C-93.6906 600.423 -91.113 602.633 -88.075 603.277C-87.983 603.921 -87.7988 604.658 -87.7068 605.302C-87.0623 608.064 -82.6435 607.512 -82.7356 604.658C-82.7356 603.921 -82.8277 603.277 -82.9197 602.632C-80.7103 601.528 -78.9612 599.594 -78.8691 596.464C-73.2535 424.407 138.666 316.79 101.014 133.409C100.553 131.384 97.2392 131.292 96.871 133.409C89.4142 175.296 87.0207 216.538 72.9357 257.044C56.8254 303.35 30.2205 344.132 1.95847 383.809C-43.9788 448.158 -91.6653 514.256 -93.5985 596.373Z" fill="#262625"/>
<path d="M59.3114 165.63C49.6453 217.735 30.7732 263.764 2.78733 308.873C-22.6209 349.931 -52.5399 388.688 -73.4372 432.416C-74.7261 435.085 -71.2279 437.019 -69.4788 434.717C-11.4818 357.112 63.7302 267.999 71.3711 167.287C71.9234 160.382 60.6002 158.725 59.3114 165.63Z" fill="#262625"/>
<path d="M61.9817 87.288C55.6297 99.1636 58.5755 112.88 62.5341 124.94C63.1785 126.965 66.4006 127.241 66.9529 124.94C69.4385 113.156 72.9367 100.176 68.9782 88.2086C67.9655 85.2627 63.5467 84.25 61.9817 87.288Z" fill="#262625"/>
<path d="M58.6677 69.1522C58.5757 71.5457 61.8897 72.2822 62.9944 70.349C68.2418 61.5114 69.9909 53.2261 67.4133 43.1917C66.8609 41.1664 65.1118 39.3253 63.0865 38.865C56.7344 37.4841 54.8013 43.0997 55.906 48.3471C57.3789 54.9753 58.9439 62.1557 58.6677 69.1522Z" fill="#262625"/>
<path d="M-83.4709 393.383C-40.8477 348.09 -2.73537 286.319 12.7305 225.744C13.9273 221.233 7.20695 218.011 4.99754 222.522C-24.093 280.703 -51.5265 335.938 -86.9692 390.805C-88.35 392.738 -85.22 395.132 -83.4709 393.383Z" fill="#262625"/>
<path d="M24.7902 190.762C42.5575 146.113 43.3861 93.3637 38.3229 46.2296C37.5864 38.957 26.171 38.6808 26.7234 46.2296C30.4978 95.389 24.1458 141.418 20.3714 190.209C20.1873 192.879 23.9616 192.879 24.7902 190.762Z" fill="#262625"/>
<path d="M-77.1185 338.792C-57.1418 304.73 -42.6886 266.986 -27.683 230.531C-13.7821 196.837 0.947324 160.566 -2.64296 123.466C-3.19531 117.667 -11.2044 117.575 -11.7568 123.466C-18.8453 199.967 -61.9288 263.764 -81.2612 336.951C-81.9056 339.528 -78.4073 341.093 -77.1185 338.792Z" fill="#262625"/>
<path d="M-7.6144 102.017C-7.15411 103.858 -4.30031 104.318 -3.37972 102.569C3.61674 89.4968 3.7088 67.8631 -0.617959 53.8702C-2.36707 48.1626 -10.7445 49.2673 -11.0206 55.2511C-11.3889 63.4443 -9.63969 71.8216 -9.45558 80.1069C-9.27146 87.4716 -9.54764 94.8364 -7.6144 102.017Z" fill="#262625"/>
</g>
<defs>
<clipPath id="clip0_450_142">
<rect width="1570" height="2577" fill="white" transform="translate(1570 2577) rotate(-180)"/>
</clipPath>
</defs>
</svg>
